<?xml version="1.0" encoding="UTF-8" standalone="no"?>
<!-- Created with Inkscape (http://www.inkscape.org/) -->

<svg
   xmlns:dc="http://purl.org/dc/elements/1.1/"
   xmlns:cc="http://creativecommons.org/ns#"
   xmlns:rdf="http://www.w3.org/1999/02/22-rdf-syntax-ns#"
   xmlns:svg="http://www.w3.org/2000/svg"
   xmlns="http://www.w3.org/2000/svg"
   xmlns:sodipodi="http://sodipodi.sourceforge.net/DTD/sodipodi-0.dtd"
   xmlns:inkscape="http://www.inkscape.org/namespaces/inkscape"
   version="1.1"
   id="svg10842"
   xml:space="preserve"
   width="793.33331"
   height="793.33331"
   viewBox="0 0 793.33331 793.33331"
   sodipodi:docname="cartoon-dog-publicdomainvectors.org.svg"
   inkscape:version="0.92.4 (5da689c313, 2019-01-14)"><metadata
     id="metadata10848"><rdf:RDF><cc:Work
         rdf:about=""><dc:format>image/svg+xml</dc:format><dc:type
           rdf:resource="http://purl.org/dc/dcmitype/StillImage" /><dc:title></dc:title></cc:Work></rdf:RDF></metadata><defs
     id="defs10846"><clipPath
       clipPathUnits="userSpaceOnUse"
       id="clipPath10858"><path
         d="M 0,595 H 595 V 0 H 0 Z"
         id="path10856"
         inkscape:connector-curvature="0" /></clipPath></defs><sodipodi:namedview
     pagecolor="#ffffff"
     bordercolor="#666666"
     borderopacity="1"
     objecttolerance="10"
     gridtolerance="10"
     guidetolerance="10"
     inkscape:pageopacity="0"
     inkscape:pageshadow="2"
     inkscape:window-width="797"
     inkscape:window-height="480"
     id="namedview10844"
     showgrid="false"
     inkscape:zoom="0.297479"
     inkscape:cx="396.66666"
     inkscape:cy="396.66666"
     inkscape:window-x="0"
     inkscape:window-y="0"
     inkscape:window-maximized="0"
     inkscape:current-layer="g10850" /><g
     id="g10850"
     inkscape:groupmode="layer"
     inkscape:label="cartoon-dog-publicdomainvectors.org"
     transform="matrix(1.3333333,0,0,-1.3333333,0,793.33333)"><g
       id="g10852"><g
         id="g10854"
         clip-path="url(#clipPath10858)"><path
           d="m 349.384,25.023 c 79.765,0 144.824,30.461 144.824,67.808 0,37.347 -65.059,67.808 -144.824,67.808 -79.767,0 -144.825,-30.461 -144.825,-67.808 0,-37.347 65.058,-67.808 144.825,-67.808"
           style="fill:#d8edc2;fill-opacity:1;fill-rule:evenodd;stroke:none"
           id="path10860"
           inkscape:connector-curvature="0" /><path
           d="m 470.132,235.177 c 9.96,-20.849 13.722,-47.754 10.905,-72.807 -3.074,-27.344 -13.989,-52.709 -33.241,-66.115 -6.103,-4.25 -10.348,-3.45 -13.408,0.947 -3.265,4.69 -2.95,14.588 -2.582,26.007 0.316,9.866 0.673,21.062 -0.999,29.139 -2.877,-11.931 -7.867,-23.367 -15.062,-33.334 -8.536,-11.826 -14.529,-14.315 -19.419,-10.786 -4.673,3.373 -5.504,12.541 -6.518,23.744 -0.783,8.627 -1.694,18.661 -4.227,26.921 -13.666,-5.805 -28.16,-13.229 -43.112,-14.2 2.443,-15.741 1.359,-29.848 -2.038,-42.071 -4.561,-16.411 -13.296,-29.424 -23.292,-38.458 -5.921,-5.351 -10.296,-5.486 -13.745,-1.672 -3.801,4.206 -3.454,14.449 -3.01,27.421 0.794,23.27 1.932,56.726 -17.522,64.334 -4.809,1.88 -7.955,-1.019 -10.073,-6.439 -4.552,-11.641 -5.069,-32.637 -5.505,-50.476 -0.437,-17.787 -0.805,-32.747 -6.263,-36.436 -4.132,-2.792 -8.551,-1.251 -13.517,6.097 -12.299,18.2 -20.645,40.849 -22.918,66.157 -2.045,22.794 0.847,47.73 10.24,73.48 2.585,7.088 4.15,14.513 4.213,21.925 0.046,5.49 -0.733,11.006 -2.539,16.406 -31.43,-1.309 -70.719,4.502 -94.819,26.122 -13.151,11.796 -21.225,27.747 -21.225,48.492 0,34.21 22.062,88.226 43.228,114.007 2.742,3.338 5.606,6.494 8.593,9.443 -5.01,16.325 -9.864,32.059 -20.575,33.705 -11.264,1.732 -11.478,-51.457 -26.882,-63.241 -53.28,-40.755 -46.791,72.196 -36.212,102.586 6.396,18.372 20.74,46.687 42.672,48.803 43.412,4.184 59.174,-74.358 65.638,-104.052 10.487,5.129 22.044,7.993 34.699,7.993 13.476,0 26.003,-3.372 37.427,-9.306 10.701,40.976 31.213,118.514 85.779,118.755 35.424,0.159 56.896,-46.003 65.273,-74.811 4.879,-16.778 7.576,-34.212 7.644,-49.595 0.378,-83.664 -57.563,-94.268 -73.368,-12.372 -12.442,64.47 -37.3,19.233 -49.283,-12.929 20.162,-25.69 37.463,-69.13 37.463,-102.247 0,-9.398 -1.595,-17.931 -4.517,-25.63 10.428,-3.072 21.419,-5.577 32.411,-8.082 31.572,-7.198 63.146,-14.396 84.067,-35.094 14.763,18.195 20.839,34.703 17.39,58.506 -3.087,21.306 -14.411,43.947 -20.355,65.174 -6.543,23.374 -6.664,42.882 15.536,49.099 24.975,6.991 37.684,-15.579 43.456,-36.196 6.263,-22.37 7.27,-50.889 5.475,-71.11 -2.762,-31.14 -18.441,-70.514 -45.883,-87.804"
           style="fill:#a87b4d;fill-opacity:1;fill-rule:evenodd;stroke:none"
           id="path10862"
           inkscape:connector-curvature="0" /><path
           d="m 465.411,243.837 c -1.331,2.133 -2.736,4.203 -4.279,6.188 17.092,20.704 24.494,40.106 20.543,67.379 -3.198,22.069 -14.52,44.643 -20.624,66.449 -5.047,18.018 -5.737,32.891 8.697,36.932 18.734,5.244 27.176,-14.665 31.291,-29.359 5.935,-21.193 6.877,-48.321 5.166,-67.595 -2.452,-27.634 -16.513,-64.415 -40.794,-79.994 M 326.572,171.608 c 4.139,-4.39 7.492,-9.96 9.958,-16.861 19.664,-0.049 28.866,6.777 48.287,14.52 84.295,34.689 49.571,-72.065 57.339,-64.902 16.733,11.65 26.293,34.368 29.072,59.087 2.828,25.159 -1.376,52.162 -12.192,71.766 -21.336,33.538 -52.54,39.054 -90.753,47.766 -11.661,2.659 -23.322,5.317 -34.48,8.676 -7.775,-13.768 -20.07,-24.042 -34.004,-31.279 -16.274,-8.452 -34.987,-12.98 -53.187,-14.727 1.618,-5.671 2.325,-11.433 2.276,-17.177 -0.075,-8.623 -1.853,-17.148 -4.793,-25.206 -8.88,-24.346 -11.622,-47.846 -9.699,-69.271 2.113,-23.524 9.867,-44.573 21.296,-61.484 0.013,-0.019 0.655,-0.421 0.809,1.25 0.475,5.143 0.692,13.958 0.933,23.797 0.459,18.665 0.998,40.63 6.162,53.836 4.284,10.955 11.305,16.559 22.859,12.041 25.945,-10.148 24.667,-47.709 23.777,-73.836 -0.367,-10.766 -0.657,-19.269 0.462,-20.506 0.805,-0.891 -0.927,1.672 -0.16,2.367 8.729,7.888 16.374,19.31 20.396,33.782 6.546,23.554 0.92,43.616 -4.358,66.361 m 68.216,-9.073 c 2.984,-9.357 3.978,-20.291 4.829,-29.675 0.793,-8.745 1.441,-15.899 2.466,-16.638 0.209,-0.151 1.318,2.52 5.667,8.546 8.188,11.345 13.281,25.184 15.197,39.008 -8.367,4.027 -17.983,2.368 -28.159,-1.241 M 290.052,418.824 c 2.749,0.69 5.499,1.382 8.249,2.073 21.617,-27.817 34.363,-65.596 34.363,-94.583 0,-26.831 -15.002,-45.541 -37.385,-57.167 -38.406,-19.945 -112.675,-21.546 -147.032,9.273 -11.094,9.952 -17.904,23.479 -17.904,41.155 0,31.863 21.211,83.708 40.95,107.75 5.047,6.148 10.618,11.692 16.725,16.359 v 0 c -4.268,-0.563 -6.87,1.542 -7.65,6.56 -5.528,17.72 -11.62,33.862 -27.199,36.258 -25.556,3.93 -20.301,-54.436 -34.336,-65.172 -39.37,-30.117 -27.833,71.629 -20.916,91.5 4.855,13.948 17.334,40.603 34.291,42.238 35.504,3.422 50.43,-75.117 55.713,-99.351 0.718,-3.504 1.436,-7.007 2.156,-10.509 11.86,8.511 25.674,13.724 41.54,13.724 13.564,0 26.165,-4.137 37.547,-11.135 1.312,-4.042 2.624,-8.085 3.936,-12.127 1.589,6.206 3.179,12.413 4.768,18.62 9.317,35.764 28.504,113.921 76.995,114.129 29.761,0.135 48.859,-43.934 55.771,-67.704 4.632,-15.932 7.194,-32.417 7.258,-46.892 0.298,-66.297 -39.61,-84.144 -53.826,-10.479 -12.858,66.636 -48.549,42.155 -66.323,-6.17 -2.564,-6.116 -5.126,-12.234 -7.691,-18.35"
           style="fill:#edcdad;fill-opacity:1;fill-rule:evenodd;stroke:none"
           id="path10864"
           inkscape:connector-curvature="0" /><path
           d="m 316.24,284.522 c -5.791,-6.076 -12.897,-11.185 -20.961,-15.375 -38.406,-19.945 -112.675,-21.546 -147.032,9.273 -1.658,1.487 -3.219,3.055 -4.677,4.702 13.136,30.789 46.969,52.709 86.64,52.709 39.069,0 72.479,-21.257 86.03,-51.309"
           style="fill:#fff5eb;fill-opacity:1;fill-rule:evenodd;stroke:none"
           id="path10866"
           inkscape:connector-curvature="0" /><path
           d="m 149.592,486.634 c -21.503,-1.879 -17.42,-55.1 -30.759,-65.304 -39.37,-30.117 -27.833,71.629 -20.916,91.5 3.317,9.528 10.193,24.987 19.624,34.348 16.87,-11.801 29.112,-34.099 32.051,-60.544"
           style="fill:#bf966d;fill-opacity:1;fill-rule:evenodd;stroke:none"
           id="path10868"
           inkscape:connector-curvature="0" /><path
           d="m 416.718,471.397 c 0.749,-6.061 1.149,-11.967 1.174,-17.574 0.298,-66.297 -39.61,-84.144 -53.826,-10.479 -1.633,8.463 -3.635,15.45 -5.922,21.111 8.816,9.16 20.542,14.746 33.413,14.746 9.184,0 17.784,-2.847 25.161,-7.804"
           style="fill:#bf966d;fill-opacity:1;fill-rule:evenodd;stroke:none"
           id="path10870"
           inkscape:connector-curvature="0" /><path
           d="m 497.873,313.032 c -5.495,0 -10.823,0.742 -15.898,2.131 -0.091,0.741 -0.191,1.488 -0.3,2.241 -3.198,22.069 -14.52,44.643 -20.624,66.449 -5.047,18.018 -5.737,32.891 8.697,36.932 18.734,5.244 27.176,-14.665 31.291,-29.359 5.935,-21.193 6.877,-48.321 5.166,-67.595 -0.297,-3.35 -0.767,-6.834 -1.401,-10.398 -2.278,-0.262 -4.588,-0.401 -6.931,-0.401"
           style="fill:#bf966d;fill-opacity:1;fill-rule:evenodd;stroke:none"
           id="path10872"
           inkscape:connector-curvature="0" /><path
           d="m 325.354,203.681 c 12.898,0.276 21.051,-9.367 31.99,-10.356 14.532,-1.316 29.651,-4.991 44.142,-1.544 13.665,3.254 25.226,-11.014 27.227,-19.321 -8.697,5.29 -22.433,5.64 -43.896,-3.193 -19.421,-7.743 -28.623,-14.569 -48.287,-14.52 -2.466,6.901 -5.819,12.471 -9.958,16.861 -8.017,10.738 -24.718,31.569 -1.218,32.073"
           style="fill:#fff5eb;fill-opacity:1;fill-rule:evenodd;stroke:none"
           id="path10874"
           inkscape:connector-curvature="0" /><path
           d="m 264.628,153.816 c -9.773,18.976 -16.359,43.175 -0.839,48.501 14.872,5.103 28.043,-22.585 28.043,-37.838 0,-1.042 0.001,-2.319 -0.019,-3.754 -1.644,1.045 -3.425,1.958 -5.358,2.715 -10.67,4.172 -17.475,-0.288 -21.827,-9.624"
           style="fill:#fff5eb;fill-opacity:1;fill-rule:evenodd;stroke:none"
           id="path10876"
           inkscape:connector-curvature="0" /><path
           d="m 479.598,282.22 c 3.798,-4.05 6.757,-8.157 9.328,-12.532 -6.256,-10.619 -14.121,-19.824 -23.515,-25.851 -1.331,2.133 -2.736,4.203 -4.279,6.188 8.801,10.659 15.029,20.974 18.466,32.195"
           style="fill:#fff5eb;fill-opacity:1;fill-rule:evenodd;stroke:none"
           id="path10878"
           inkscape:connector-curvature="0" /><path
           d="m 471.144,195.08 c -3.632,0.854 -7.551,2.888 -12.096,6.089 -12.482,8.793 -16.105,41.437 -52.571,41.437 -32.536,0 -26.945,-0.933 -55.981,-7.318 -26.094,-5.737 -44.133,2.822 -54.839,23.051 1.397,0.653 2.778,1.334 4.142,2.042 13.934,7.237 26.229,17.511 34.004,31.279 11.158,-3.359 22.819,-6.017 34.48,-8.676 38.213,-8.712 69.417,-14.228 90.753,-47.766 6.326,-11.466 10.389,-25.462 12.108,-40.138"
           style="fill:#bf966d;fill-opacity:1;fill-rule:evenodd;stroke:none"
           id="path10880"
           inkscape:connector-curvature="0" /><path
           d="m 168.855,298.736 c 13.303,-9.255 32.591,-10.119 47.484,-4.206 -11.881,8.732 -27.466,18.357 -25.94,35.285 1.186,13.128 13.417,20.913 27.39,23.453 5.453,0.991 11.178,1.192 16.546,0.601 14.102,-1.552 29.786,-9.518 26.071,-26.398 -3.127,-14.209 -14.395,-25.029 -25.569,-33.528 12.113,-6.018 21.118,-6.635 28.417,-4.292 8.685,2.79 15.688,10.006 22.636,17.357 2.167,2.292 4.334,4.584 6.499,6.875 0.658,-9.654 1.733,-18.645 8.071,-28.937 -7.956,1.839 -10.759,5.768 -12.78,9.724 -6.209,-6.176 -12.883,-11.664 -21.414,-14.402 -13.272,-4.264 -29.58,0.184 -40.908,7.599 -17.585,-12.828 -43.917,-7.298 -56.503,10.869"
           style="fill:#a87b4d;fill-opacity:1;fill-rule:evenodd;stroke:none"
           id="path10882"
           inkscape:connector-curvature="0" /><path
           d="m 193.067,405.443 c 5.299,-2 6.652,-11.422 3.02,-21.047 -3.631,-9.624 -10.872,-15.806 -16.17,-13.807 -5.299,2 -6.65,11.423 -3.02,21.048 3.632,9.624 10.872,15.804 16.17,13.806"
           style="fill:#a87b4d;fill-opacity:1;fill-rule:evenodd;stroke:none"
           id="path10884"
           inkscape:connector-curvature="0" /><path
           d="m 194.099,400.205 c 1.71,-0.289 2.581,-3.573 1.946,-7.333 -0.635,-3.762 -2.538,-6.576 -4.249,-6.287 -1.71,0.29 -2.582,3.573 -1.945,7.334 0.634,3.76 2.537,6.575 4.248,6.286"
           style="fill:#ffffff;fill-opacity:1;fill-rule:evenodd;stroke:none"
           id="path10886"
           inkscape:connector-curvature="0" /><path
           d="m 258.485,404.722 c 5.257,2.106 12.62,-3.928 16.445,-13.477 3.824,-9.55 2.663,-18.997 -2.595,-21.104 -5.258,-2.105 -12.62,3.929 -16.445,13.478 -3.824,9.549 -2.662,18.998 2.595,21.103"
           style="fill:#a87b4d;fill-opacity:1;fill-rule:evenodd;stroke:none"
           id="path10888"
           inkscape:connector-curvature="0" /><path
           d="m 261.924,398.875 c -0.226,2.9 1.655,3.858 4.201,2.137 2.546,-1.72 4.794,-5.468 5.02,-8.368 0.227,-2.903 -1.653,-3.86 -4.2,-2.138 -2.547,1.72 -4.795,5.467 -5.021,8.369"
           style="fill:#ffffff;fill-opacity:1;fill-rule:evenodd;stroke:none"
           id="path10890"
           inkscape:connector-curvature="0" /><path
           d="m 285.033,464.968 c 17.153,44.197 33.478,90.798 66.551,88.944 -35.461,-11.659 -49.231,-52.707 -66.551,-88.944 M 177.88,484.011 c -10.491,32.364 -21.938,58.87 -37.462,60.484 17.181,-13.664 27.585,-36.707 37.462,-60.484 m -6.489,-80.573 c 6.856,26.313 19.933,26.567 32.439,22.603 -13.015,-0.134 -24.731,-12.694 -32.439,-22.603 m 85.597,17.162 c 10.204,3.519 21.049,-0.031 25.741,-21.975 -6.13,8.318 -15.412,22.05 -25.741,21.975 m 71.367,-294.043 c -0.625,17.433 -4.117,34.75 -11.72,51.903 5.346,-17.014 9.163,-34.332 11.72,-51.903 m -76.598,-25.115 c -2.208,17.383 -1.632,33.618 5.651,47.089 -5.122,-14.563 -6.113,-30.571 -5.651,-47.089 m 214.935,71.996 c 0.977,-22.021 -4.187,-36.93 -13.814,-46.671 7.421,13.586 11.974,29.176 13.814,46.671"
           style="fill:#a87b4d;fill-opacity:1;fill-rule:evenodd;stroke:none"
           id="path10892"
           inkscape:connector-curvature="0" /></g></g></g></svg>