<?xml version="1.0" encoding="UTF-8" standalone="no"?>
<svg
   xmlns:dc="http://purl.org/dc/elements/1.1/"
   xmlns:cc="http://creativecommons.org/ns#"
   xmlns:rdf="http://www.w3.org/1999/02/22-rdf-syntax-ns#"
   xmlns:svg="http://www.w3.org/2000/svg"
   xmlns="http://www.w3.org/2000/svg"
   xmlns:sodipodi="http://sodipodi.sourceforge.net/DTD/sodipodi-0.dtd"
   xmlns:inkscape="http://www.inkscape.org/namespaces/inkscape"
   sodipodi:docname="pand.svg"
   inkscape:version="1.0 (4035a4fb49, 2020-05-01)"
   id="svg8"
   version="1.1"
   viewBox="0 0 210 297"
   height="297mm"
   width="210mm">
  <defs
     id="defs2" />
  <sodipodi:namedview
     inkscape:window-maximized="1"
     inkscape:window-y="-8"
     inkscape:window-x="-8"
     inkscape:window-height="1017"
     inkscape:window-width="1920"
     showgrid="false"
     inkscape:document-rotation="0"
     inkscape:current-layer="layer1"
     inkscape:document-units="mm"
     inkscape:cy="668.91093"
     inkscape:cx="259.74693"
     inkscape:zoom="0.49497475"
     inkscape:pageshadow="2"
     inkscape:pageopacity="0.0"
     borderopacity="1.0"
     bordercolor="#666666"
     pagecolor="#ffffff"
     id="base" />
  <metadata
     id="metadata5">
    <rdf:RDF>
      <cc:Work
         rdf:about="">
        <dc:format>image/svg+xml</dc:format>
        <dc:type
           rdf:resource="http://purl.org/dc/dcmitype/StillImage" />
        <dc:title></dc:title>
      </cc:Work>
    </rdf:RDF>
  </metadata>
  <g
     id="layer1"
     inkscape:groupmode="layer"
     inkscape:label="Capa 1">
    <g
       transform="matrix(1.5491694,0,0,1.5491694,-58.775305,-100.51146)"
       id="g946">
      <circle
         style="opacity:1;fill:#000000;fill-opacity:1;stroke:#696969;stroke-width:0"
         id="path853"
         cx="78.770233"
         cy="83.608322"
         r="17.386904" />
      <circle
         r="17.386904"
         cy="84.137489"
         cx="134.93738"
         id="circle857"
         style="opacity:1;fill:#000000;fill-opacity:1;stroke:#696969;stroke-width:0" />
      <path
         id="path915"
         style="opacity:1;fill:#000000;fill-opacity:0.980263;stroke:#1a0000;stroke-width:0.500778;stroke-miterlimit:4;stroke-dasharray:none;stroke-opacity:1"
         d="m 55.770235,253.69564 c -0.72259,-5.45939 2.444259,-10.77898 8.178574,-13.73817 5.734316,-2.95919 12.91031,-2.73822 18.893885,-0.23255 6.017766,2.51999 17.761206,-6.51239 8.69457,13.53051 m 5.166015,-19.10582 c 0,9.72442 -5.370326,17.60762 -11.994959,17.60762 -6.624633,0 -11.994959,-7.8832 -11.994959,-17.60762 0,-9.72442 5.370326,-17.60762 11.994959,-17.60762 6.624633,0 11.994959,7.8832 11.994959,17.60762 z"
         sodipodi:nodetypes="csscsssss" />
      <path
         sodipodi:nodetypes="csscsssss"
         d="m 158.92915,254.76472 c 0.72259,-5.45939 -2.44426,-10.77898 -8.17858,-13.73817 -5.73431,-2.95919 -12.91031,-2.73822 -18.89388,-0.23255 -6.01777,2.51999 -17.76121,-6.51239 -8.69457,13.53051 m -5.16602,-19.10582 c 0,9.72442 5.37033,17.60762 11.99496,17.60762 6.62464,0 11.99496,-7.8832 11.99496,-17.60762 0,-9.72442 -5.37032,-17.60762 -11.99496,-17.60762 -6.62463,0 -11.99496,7.8832 -11.99496,17.60762 z"
         style="opacity:1;fill:#000000;fill-opacity:0.980263;stroke:#1a0000;stroke-width:0.500778;stroke-miterlimit:4;stroke-dasharray:none;stroke-opacity:1"
         id="path920" />
      <circle
         r="40.82143"
         cy="200.09962"
         cx="106.4381"
         id="circle877"
         style="opacity:1;fill:#f5f5f5;fill-opacity:0.980263;stroke:#696969;stroke-width:0" />
      <path
         style="opacity:1;fill:#000000;fill-opacity:0.980263;stroke:#1a0000;stroke-width:1.31211;stroke-miterlimit:4;stroke-dasharray:none;stroke-opacity:1"
         id="path875"
         sodipodi:type="arc"
         sodipodi:cx="106.18169"
         sodipodi:cy="184.72824"
         sodipodi:rx="43.957424"
         sodipodi:ry="43.706223"
         sodipodi:start="3.3224635"
         sodipodi:end="6.0969159"
         sodipodi:open="true"
         sodipodi:arc-type="arc"
         d="m 62.941322,176.86609 a 43.957424,43.706223 0 0 1 43.121708,-35.84391 43.957424,43.706223 0 0 1 43.3157,35.61193" />
      <circle
         style="opacity:1;fill:#f5f5f5;fill-opacity:0.980263;stroke:#696969;stroke-width:0"
         id="path835"
         cx="106.4381"
         cy="115.9631"
         r="40.82143" />
      <ellipse
         cy="142.18553"
         cx="-41.750721"
         id="circle837"
         style="opacity:1;fill:#000000;fill-opacity:0.842742;stroke:#696969;stroke-width:0"
         rx="12.851607"
         ry="8.9484682"
         transform="matrix(0.62020823,-0.78443722,0.83167483,0.55526298,0,0)" />
      <ellipse
         style="opacity:1;fill:#fffafa;fill-opacity:1;stroke:#696969;stroke-width:0"
         id="path843"
         cx="94.720032"
         cy="113.23713"
         rx="5.1628928"
         ry="5.3694086" />
      <ellipse
         transform="matrix(-0.62020823,-0.78443722,-0.83167483,0.55526298,0,0)"
         ry="8.9484682"
         rx="12.851607"
         style="opacity:1;fill:#000000;fill-opacity:0.842742;stroke:#696969;stroke-width:0"
         id="ellipse851"
         cx="-159.78831"
         cy="-24.569319" />
      <ellipse
         ry="5.3694086"
         rx="5.1628928"
         cy="113.23713"
         cx="117.75159"
         id="ellipse845"
         style="opacity:1;fill:#fffafa;fill-opacity:1;stroke:#696969;stroke-width:0" />
      <ellipse
         style="opacity:1;fill:#000000;fill-opacity:1;stroke:#696969;stroke-width:0"
         id="ellipse847"
         cx="96.777374"
         cy="113.99813"
         rx="2.8912203"
         ry="3.0068693" />
      <ellipse
         ry="3.0068693"
         rx="2.8912203"
         cy="113.99813"
         cx="115.85941"
         id="ellipse849"
         style="opacity:1;fill:#000000;fill-opacity:1;stroke:#696969;stroke-width:0" />
      <path
         style="opacity:1;fill:#f5f5f5;fill-opacity:0.980263;stroke:#1a0000;stroke-width:0.722405;stroke-miterlimit:4;stroke-dasharray:none;stroke-opacity:1"
         id="path861"
         sodipodi:type="arc"
         sodipodi:cx="97.880508"
         sodipodi:cy="131.53741"
         sodipodi:rx="7.4891968"
         sodipodi:ry="6.689991"
         sodipodi:start="0"
         sodipodi:end="3.1970912"
         sodipodi:open="true"
         sodipodi:arc-type="arc"
         d="m 105.36971,131.53741 a 7.4891968,6.689991 0 0 1 -3.86522,5.85459 7.4891968,6.689991 0 0 1 -7.605932,-0.18858 7.4891968,6.689991 0 0 1 -3.495716,-6.0371" />
      <path
         d="m 121.27423,130.9413 a 7.5828028,6.7736077 0 0 1 -3.91353,5.92776 7.5828028,6.7736077 0 0 1 -7.70099,-0.19094 7.5828028,6.7736077 0 0 1 -3.53941,-6.11255"
         sodipodi:arc-type="arc"
         sodipodi:open="true"
         sodipodi:end="3.1970912"
         sodipodi:start="0"
         sodipodi:ry="6.7736077"
         sodipodi:rx="7.5828028"
         sodipodi:cy="130.9413"
         sodipodi:cx="113.69143"
         sodipodi:type="arc"
         id="path871"
         style="opacity:1;fill:#f5f5f5;fill-opacity:0.980263;stroke:#1a0000;stroke-width:0.731435;stroke-miterlimit:4;stroke-dasharray:none;stroke-opacity:1" />
      <path
         style="opacity:1;fill:#000000;fill-opacity:0.980263;stroke:#1a0000;stroke-width:0.811116;stroke-miterlimit:4;stroke-dasharray:none;stroke-opacity:1"
         id="path873"
         sodipodi:type="arc"
         sodipodi:cx="105.91895"
         sodipodi:cy="125.47163"
         sodipodi:rx="6.5138688"
         sodipodi:ry="5.9738674"
         sodipodi:start="0"
         sodipodi:end="3.1970941"
         sodipodi:open="true"
         sodipodi:arc-type="arc"
         d="m 112.43282,125.47163 a 6.5138688,5.9738674 0 0 1 -3.36185,5.22789 6.5138688,5.9738674 0 0 1 -6.6154,-0.16841 6.5138688,5.9738674 0 0 1 -3.040456,-5.39087" />
      <ellipse
         ry="4.6120734"
         rx="4.3459926"
         cy="200.51637"
         cx="88.671753"
         id="ellipse887"
         style="opacity:1;fill:#000000;fill-opacity:0.980263;stroke:#1a0000;stroke-width:0.46931;stroke-miterlimit:4;stroke-dasharray:none;stroke-opacity:1" />
      <ellipse
         style="opacity:1;fill:#000000;fill-opacity:0.980263;stroke:#1a0000;stroke-width:0.895854;stroke-miterlimit:4;stroke-dasharray:none;stroke-opacity:1"
         id="path889"
         cx="-99.63382"
         cy="176.12009"
         rx="8.1785603"
         ry="19.13987"
         transform="rotate(-52.302604)" />
      <ellipse
         transform="matrix(-0.61149108,-0.79125133,-0.79125133,0.61149108,0,0)"
         ry="19.13987"
         rx="8.1785603"
         cy="8.4590864"
         cx="-229.20448"
         id="ellipse891"
         style="opacity:1;fill:#000000;fill-opacity:0.980263;stroke:#1a0000;stroke-width:0.895854;stroke-miterlimit:4;stroke-dasharray:none;stroke-opacity:1" />
      <ellipse
         style="opacity:1;fill:#000000;fill-opacity:0.980263;stroke:#1a0000;stroke-width:0.46931;stroke-miterlimit:4;stroke-dasharray:none;stroke-opacity:1"
         id="ellipse893"
         cx="94.492592"
         cy="197.87057"
         rx="4.3459926"
         ry="4.6120734" />
      <ellipse
         ry="4.6120734"
         rx="4.3459926"
         cy="191.52066"
         cx="93.963425"
         id="ellipse895"
         style="opacity:1;fill:#000000;fill-opacity:0.980263;stroke:#1a0000;stroke-width:0.46931;stroke-miterlimit:4;stroke-dasharray:none;stroke-opacity:1" />
      <ellipse
         ry="4.6120734"
         rx="4.3459926"
         cy="197.87057"
         cx="117.24675"
         id="ellipse897"
         style="opacity:1;fill:#000000;fill-opacity:0.980263;stroke:#1a0000;stroke-width:0.46931;stroke-miterlimit:4;stroke-dasharray:none;stroke-opacity:1" />
      <ellipse
         style="opacity:1;fill:#000000;fill-opacity:0.980263;stroke:#1a0000;stroke-width:0.46931;stroke-miterlimit:4;stroke-dasharray:none;stroke-opacity:1"
         id="ellipse899"
         cx="117.77592"
         cy="192.04982"
         rx="4.3459926"
         ry="4.6120734" />
      <ellipse
         ry="4.6120734"
         rx="4.3459926"
         cy="199.98721"
         cx="122.00925"
         id="ellipse901"
         style="opacity:1;fill:#000000;fill-opacity:0.980263;stroke:#1a0000;stroke-width:0.46931;stroke-miterlimit:4;stroke-dasharray:none;stroke-opacity:1" />
    </g>
  </g>
</svg>
