<?xml version="1.0" standalone="no"?>
<!DOCTYPE svg PUBLIC "-//W3C//DTD SVG 1.1//EN" "http://www.w3.org/Graphics/SVG/1.1/DTD/svg11.dtd">
<svg xmlns="http://www.w3.org/2000/svg" viewBox="0 0 2652.97 3576.54" width="2652.969970703125" height="3576.5400390625"><defs><style>.cls-1{fill:#010101;}.cls-2{fill:#50444a;}.cls-3{fill:#d64e95;}.cls-4{fill:#231f20;}.cls-5{fill:#5e5658;}.cls-6{fill:#39282f;}.cls-7{fill:#4d3f46;}.cls-8{fill:#a02c71;}.cls-9{fill:#d54e95;}.cls-10{fill:#a9d29a;}.cls-11{fill:#cde0af;}.cls-12{fill:#fff;}.cls-13{fill:#97999d;}</style></defs><g id="Layer_2" data-name="Layer 2"><g id="Layer_1-2" data-name="Layer 1"><path class="cls-1" d="M900.08,2242s-295-404.43-499-439.92,320.1-251.21,565.87-256.45,953.86,134.69,972.76,269.57-534.89,226.29-613.2,426.8S1004.37,2433.56,900.08,2242Z"/><polygon class="cls-2" points="396.58 3553.15 1487.68 3553.15 1487.68 2868.97 819.64 2868.97 396.58 3553.15"/><path class="cls-3" d="M697.22,2802.73c-61.4,149.05-129.13,295.7-140.06,456.22-1.69,24.55-12.52,39.56-14,63.79-.19,3-2.22,5.77-5.12,8.25,169.46-6,274.29,37.15,288.55,149.1.14-.26.22-.54.37-.8q95.87-162.73,192.56-325.08a29.11,29.11,0,0,1,4.88-6C901.73,3112.61,792.91,2996,697.22,2802.73"/><path class="cls-3" d="M538.08,3330.68c-5.7,4.87-14.85,8.43-20.59,9-181.42,18.87-238.9,149.5-230.61,198,1.5,8.79,9.44,15.06,18.36,15.1,70.78.33,94.77.13,166.13,1,37.34.36,84.6,2.67,121.87,4l207.44,1a18.75,18.75,0,0,0,18.75-17.19c1.48-18.34,3-36.75,5-55.09a20.57,20.57,0,0,1,2.2-6.72c-147.7,21.49-241.77-31.14-288.55-149.1"/><path class="cls-3" d="M538.08,3331c46.77,118,140.84,170.59,288.55,149.1-14.26-112-119.09-155.08-288.55-149.1"/><path class="cls-3" d="M1461.39,3335.74c-117.86-59.2-229.29-63.3-330,24.75-8.8,25.28-23.14,50.66-30.53,73.75-11.76,36.9-17,72.45-13,109.48a18.8,18.8,0,0,0,18.59,16.48l559.93,2.59a18.81,18.81,0,0,0,18.4-22.89s66.68-186.73-223.4-204.16"/><path class="cls-3" d="M647.81,2541.69c-14.23-7.6-29.14-12.34-44.25-12.16-50,.58-92.55,40.92-116.1,82-18.37,32.09-22.12,68.27-14.52,104.1,3.27,15.4,17.8,36.25,18.05,50.94.33,19.66-2,8.34-10.73,25.14-22.43,43.18-26.76,79.12-13.54,126.8,12.76,46,40,91.64,92,97.5,56.2,6.33,109.37-43.1,142.88-82.51,40.28-47.38,119.62-90.23,102-157.58-15.17-58.09-40-122.38-80.08-168.06C704.23,2585.84,677.5,2557.54,647.81,2541.69Z"/><path class="cls-1" d="M1547.34,2898.55c4.14-59-5.42-125.68,18.35-180.54h.38c27.2-106.34,20.36-279.79,21.26-339.56-1.79,3.52,106.38-306.66,68.78-461.88-21.68,9.39-289.68,170.62-510.23,169.6-318.29-1.47-519.07-187.54-518.59-173.8-3.66-103.86-48.84,412.09,33.8,463.12-.06,13.67,7.54,44.54,6.46,57.89-.8,10.2-1.3,20-1.68,29.64-4.09,106.93,17.35,181.11,35.24,268.45a147.4,147.4,0,0,0,9.16,28.78l.19,1.27a19.05,19.05,0,0,1-.88,11.25q-6.12,15.18-12.36,30.3c-.65,142.59-24.62,311.74,327.22,345.51,2.17-2,4.52-3.52,6.36-3.35,20.74,1.74,88.77,4.53,109.51,7a18.7,18.7,0,0,1,10.38,4.92c205.58,17.75,377.29-41.55,396.65-258.63"/><path class="cls-2" d="M715.67,1952.33l458.21,340.81L1660,1922.72S1068,2129.45,715.67,1952.33Z"/><path class="cls-4" d="M1186.09,2223a1058.09,1058.09,0,0,1-129.63-8.23c-118.43-14.63-202.72-43.47-206.25-44.69l22.14-64-11.07,32,11.05-32c.81.27,82.25,28,194,41.67,65,7.94,127.47,9.62,185.58,5,71.64-5.72,136.8-21.1,193.66-45.72l26.92,62.18c-64,27.7-136.7,44.91-216.16,51.16Q1222,2223,1186.09,2223Z"/><path class="cls-5" d="M1196.75,2198.11a9,9,0,0,1-.11-18.07h.25a9,9,0,0,1,0,18.07Zm-22.54,0h-.14a9,9,0,1,1,.15-18.07h.12a9,9,0,0,1-.13,18.06Zm45.21-.54a9,9,0,0,1-.37-18.06h.25a9,9,0,0,1,.53,18.07Zm-67.91,0h-.4a9,9,0,1,1,.55-18.06h.24a9,9,0,0,1-.39,18.07Zm-22.68-1.09h-.54a9.09,9.09,0,0,1-8.54-9.56,9,9,0,0,1,9.49-8.49h.11a9,9,0,0,1-.52,18Zm113.27,0a9,9,0,0,1-.52-18.05l.53,9-.51-9a9,9,0,0,1,1.28,18l-.24,0Zm-135.92-1.54-.68,0-.24,0a9,9,0,1,1,1.59-18l-.8,9,.82-9a9,9,0,0,1-.69,18Zm158.54-.23a9,9,0,0,1-.79-18l.8,9-.77-9a9,9,0,0,1,1.82,18l-.26,0A7.26,7.26,0,0,1,1264.72,2194.63Zm-181.16-1.84c-.31,0-.62,0-.93-.05h-.12a9,9,0,0,1,1.85-18h.12a9,9,0,0,1-.92,18Zm203.72-.59a9,9,0,0,1-1-18l1.06,9-1-9a9,9,0,0,1,2.35,17.92l-.26,0A9.55,9.55,0,0,1,1287.28,2192.2Zm-226.28-2a10,10,0,0,1-1.22-.08,9,9,0,1,1,2.15-17.94l.26,0a9,9,0,0,1-1.19,18Zm248.75-1.14a9,9,0,0,1-1.32-18l1.33,8.93-1.3-8.94a9,9,0,0,1,2.86,17.84l-.22,0A10.22,10.22,0,0,1,1309.75,2189.1Zm-271.27-1.86a8.31,8.31,0,0,1-1.21-.09l-.23,0a9,9,0,0,1,2.63-17.88l-1.31,8.94,1.34-8.93a9,9,0,0,1-1.22,18Zm293.63-2a9,9,0,0,1-1.7-17.91l.24,0a9,9,0,1,1,3.19,17.79A9.28,9.28,0,0,1,1332.11,2185.28ZM1016,2183.79a9,9,0,0,1-1.45-.12l-.13,0a9,9,0,1,1,2.92-17.83l-1.46,8.91,1.55-8.9a9,9,0,0,1-1.43,18Zm338.32-3.07a9,9,0,0,1-2-17.85l.08,0a9,9,0,0,1,4,17.62l-.14,0A9.06,9.06,0,0,1,1354.35,2180.72Zm-360.7-.81a9.3,9.3,0,0,1-1.73-.17,9,9,0,1,1,3.2-17.78l.24,0a9,9,0,0,1-1.71,17.91Zm-22.3-4.32a8.55,8.55,0,0,1-1.74-.17l-.23,0a9,9,0,0,1,3.7-17.69l-1.85,8.84,1.87-8.83a9,9,0,0,1-1.75,17.89Zm405.06-.21a9,9,0,0,1-2.25-17.78l2.26,8.75-2.23-8.76a9,9,0,0,1,4.71,17.45l-.23.06A9.2,9.2,0,0,1,1376.41,2175.38Zm-427.28-4.53a9,9,0,0,1-2-.22l-.12,0a9,9,0,1,1,4-17.62l.1,0a9,9,0,0,1-2,17.85Zm449.09-1.59a9,9,0,0,1-2.61-17.68l.26-.08a9,9,0,1,1,2.35,17.76ZM927,2165.68a9.34,9.34,0,0,1-2.26-.29,9,9,0,0,1,4.26-17.56l.25.06a9,9,0,0,1-2.25,17.79Zm492.85-3.4a9,9,0,0,1-2.94-17.58l2.94,8.54-2.9-8.55a9,9,0,0,1,6,17l-.18.07A9.2,9.2,0,0,1,1419.86,2162.28ZM905,2160.05a9.36,9.36,0,0,1-2.27-.29l-.22-.06a9,9,0,0,1,4.75-17.44l-2.37,8.72,2.4-8.71a9,9,0,0,1-2.29,17.78Zm536.12-5.58a9,9,0,0,1-3.29-17.45l.26-.1a9,9,0,1,1,3,17.55Zm-558-.55a9.33,9.33,0,0,1-2.64-.39,9,9,0,1,1,5-17.35l.23.06a9,9,0,0,1-2.64,17.68Zm-21.74-6.77a8.92,8.92,0,0,1-2.9-.49l-.15,0a9,9,0,1,1,3,.54Z"/><path class="cls-3" d="M697.22,2802.73c95.69,193.27,204.51,309.88,327.22,345.51C1023,2960,906.8,2852.64,697.22,2802.73"/><path class="cls-3" d="M1547.34,2898.2c-262.51,10.72-374.28,120.9-396.65,258.64a18.86,18.86,0,0,1,6,15.91c-6.26,53.44-12.77,105.94-18.2,158.63a130.58,130.58,0,0,1-7,29.42c101.35,89.85,211.64,78.1,330-24.74l-3.36-.23c84.19-249.14,68.32-268.39,87.7-420.43.71-5.64,1.21-11.39,1.61-17.2"/><path class="cls-1" d="M771.78,2103.12v0c-30.66,58.4-83.44,167.22-107.38,202.69C603.77,2395.76,528,2387.31,492.6,2425.1c-245.67-17.24-289.12-45.27-242.85-203.47a319.79,319.79,0,0,1,65.42-119.46c174.19-201,309.16-182.57,311.57-188.9C626.74,1913.27,656.4,1979.09,771.78,2103.12Z"/><path class="cls-1" d="M476.42,2711.23c-39.05-45.31-172.5-201.48-195.28-232.94-57.75-79.69-74.56-116.49-60.2-173.18,52.4-206.79,94.17-198.87,252.29-52.53,24.82,27,131.45,271.6,136.77,276.7C610,2529.28,591.8,2674.16,476.42,2711.23Z"/><path class="cls-3" d="M1587.33,2378.11c1.35-2.67,2.68-5.36,4-8l-3.85,1c-.07,2.11-.12,4.53-.15,7.07"/><path class="cls-3" d="M1656.09,1917.35c1.19,1.7,2.45,3.53,3.87,5.37q-1-8.64-2.16-17.21l-1.69,10.72c1.85-.8,1.92-.5,0,1.12"/><path class="cls-3" d="M1858.24,2483.27c6.72.15,46.09,37.77,55.62,43.1,72.5,40.51,166.4,42.89,212.36-37.26,21.1-36.81,29.28-69.2,55-100.42,28.67-34.79,51.84-80.07,61.18-124.38,20.5-97.26-10.53-181.93-111.13-206.55-59.09-14.46-122.17-2.53-178.33,18-7.5,2.74-110.74,48-107,55.06a1.63,1.63,0,0,0-1.47-.76c-169.06,5.06-158.49,358.14,10.57,353.08C1856.11,2483.08,1857.2,2483.25,1858.24,2483.27Z"/><path class="cls-1" d="M1879,2121.84c-14.84-5.64-126.13-49.19-175.51-104.82-10.14-11.36-10.88-21-10-29,.23-2.31.59-4.5.91-6.55,2.52.16,2.68-.1.79-.8-193.86,11.84-372.7,287.52-369,286.22,1.79-1.81,3.5-3.52,5-5l3.45,2c41.35,23.37,449.24,251.36,601.62,240.9-173.45-123.24-225.5-249.94-57.25-382.9"/><path class="cls-6" d="M1850.21,3558.78c-25.45-4.81-251.94-234.78-262.88-266.16s35.77-268.49,76.72-380.56,67.59-129.46,67.59-129.46,368.1-859.21,368.1-873.31S2082,1606.5,2082,1606.5s159.67-162.69,235.07-158.76,133,119.47,106.44,179.23-119.75,50.82-119.75,39.77,41.21-49.94,58.31-57.11,21.52-104.73-27.26-82.56-173,50.71-150.8,114.06,13.3,207.1,22.18,281.59S1886,2612.3,1890.88,2646.26s100.59,379.92,117,433.14,122.88,213.22,122.88,213.22-57.66,44.94-39.92,37.83,292.72,114.28,292.72,114.28H2263.84l230.63,95.93-17.74,22.13Z"/><path class="cls-6" d="M1701.71,2715.82c5.67-14,21.27-23.13,36.22-21.32a37.85,37.85,0,0,1-14-39.74c4-14.41,17.5-25.66,32.39-27-20.27-5.75-29.65-34.29-16.75-50.94s42.88-14.69,53.51,3.5a25.61,25.61,0,0,1-6-28.49l116.07,36.37c15.21,4.77,32.56,11.61,37.08,26.89,4,13.37-4.47,27.9-16.17,35.47s-26,9.77-39.76,11.8l25.53-2.73,15.85,48.39-19.47,8.51c19.17-6.6,42.62,5.25,48.68,24.59s-6.43,42.45-25.94,48c17.91-4.85,35.92,14.2,34.54,32.7s-17,33.47-34.4,39.85-36.51,5.87-55,5.29c-43.1,0-116,9-156-11.35-39.72-20.19-44.93-71.6-7.07-99.45C1701.56,2745.42,1696.08,2729.71,1701.71,2715.82Z"/><path class="cls-1" d="M1493.38,100.09c51.39-33.42,103-66.52,154.3-100.09,3.71.66,11.19,1.88,14.9,2.49Q1739.52,16,1816.46,29.62c53.08,9.68,106.72,17.06,158.76,31.87,42.45,11.15,85.1,21.77,126.89,35.36,19.14,5.5,30.79,22.56,44.15,36.06q42.73,44.28,85.89,88.29,92.73,95.21,185.75,190.07c-90.69-23.74-180.81-49.41-271.27-73.81-37.8-8.93-74.61-23.08-112.88-29.1-52.89,22.76-104,50-156,74.89,0,50.07-2,100.14-2.54,150.26-.18,21-3,42.26,1.32,63,33.94,141.61,68.92,283,102.4,424.72,76.77,25.58,154.15,49.37,231.07,74.57,9.31,3,18.66,5.87,28.06,8.88,27.32,9,54.73,18.1,82.23,26.7,35.21,11.76,70.61,23,105.83,34.89,75.64,25.06,151.71,48.89,226.84,75.41-2.12,7.47-12,7.8-17.92,11.09-34.88,10.82-69.15,28-106.62,25.86-50.64-2.68-100.89-9.5-151-17.07-27.18-4.18-54.16-9.12-81.19-13.72-108.42-18.81-216.17-41.14-323.83-64-36-7.57-71.84-15.56-107.76-23.18,2.31,10.07,4.8,20.17,7.2,30.28-3.25-9.87-6-20-10.63-29.24-17.16-8-36.53-9.31-54.72-14.06-107.57-24.45-215.42-48-322.33-75.13Q1061,918.83,638.44,763.73c-67.7-24.59-135.21-49.55-202.91-74.14-70.8-26.09-144-48.84-207.09-91.67-76.3-51.77-153-103.06-228.44-156,159.26,40.22,324.65,75.6,480,129,63.12,21.72,94.52,41.51,165.41,25,66.67-15.52,128.33-48.25,188.2-80.4,74-39.75,155.13-74.67,225.22-120.91,52-34.29,99.51-76.47,152.4-112.21C1305.37,221.76,1399.26,160.69,1493.38,100.09Zm490.26,55.62c7.28,16.55,24.87,27,28.16,45.51,5,21.44,9,43.16,14.43,64.55,4.28-22.15-1-44.43-2.58-66.53C2023.36,177,2000.89,164.78,1983.64,155.71Zm-252,14.76c17.78,20.22,40.53,35,60.14,53.27,12.78,12.22,30.41,20.82,37.32,38,14.48,33.24,27.79,67,43.12,100,6.15-4.37,12.41-8.7,18.66-13.07-12.51-25.86-26.19-51.15-38.65-77-8.08-15.85-15.13-34-31.49-43.11C1790.69,209.63,1763.52,186.27,1731.64,170.47ZM1581,469.05c55.9,16.32,112.13,31.17,168.08,47.25,35.35,11.1,66.05,33.15,101.12,45-16-14.58-35.82-24-53.17-36.72-19.13-15-42.92-21.11-65.91-27.41C1681.81,484.52,1633.29,459.37,1581,469.05Z"/><path class="cls-7" d="M1983.64,155.71c17.25,9.07,39.72,21.25,40,43.53,1.55,22.1,6.86,44.38,2.58,66.53-5.45-21.39-9.4-43.11-14.43-64.55C2008.51,182.69,1990.92,172.26,1983.64,155.71Z"/><path class="cls-2" d="M1731.64,170.47c31.88,15.8,59,39.16,89.1,58,16.36,9.12,23.41,27.26,31.49,43.11,12.46,25.9,26.14,51.19,38.65,77-6.25,4.37-12.51,8.7-18.66,13.07-15.33-32.91-28.64-66.71-43.12-100-6.91-17.21-24.54-25.81-37.32-38C1772.17,205.5,1749.42,190.69,1731.64,170.47Z"/><path class="cls-2" d="M1581,469.05c52.28-9.68,100.8,15.47,150.12,28.07,23,6.3,46.78,12.36,65.91,27.41,17.35,12.74,37.14,22.14,53.17,36.72-35.07-11.8-65.77-33.85-101.12-45C1693.14,500.22,1636.91,485.37,1581,469.05Z"/><path class="cls-2" d="M849.49,679.11c4.7-2.54,9.54-4.94,14.24-7.62,44.52,16.22,92.38,20.08,137.8,33.34,111.94,32,224.34,62.52,336,95.57,83.73,24.83,168.4,46.78,251.57,73.44,117,46,235.87,87.77,350.58,139.25-36.91-6-71.65-20.4-107.43-30.65C1568.65,901,1305.37,818.5,1041.21,739,977.41,718.6,912.48,701.82,849.49,679.11Z"/><path class="cls-8" d="M519.64,1440c27.08,65.21,58.39,129.15,99.76,186.65,82.79,118.56,200.47,211.09,332.48,269.29,139.82,62,293.69,90.64,446.35,89,4,.28,12,.84,16,1.17-20.69,12.79-45.09,17.44-68.07,24.54-151.67,39.07-318.33,25.58-459-44.71-117.91-57.07-214.94-153-278.6-267-40-70.24-68.26-146.92-85.37-225.86C520.58,1462.21,520.06,1451,519.64,1440Z"/><path class="cls-1" d="M839.61,1125.92c3-9.3,20.41-6.39,18.81,4,.84,14.9.19,29.85.33,44.8,25.48,3.91,49.5,13.83,72,26.28,12-14.1,22.9-29.24,36-42.4,6.3-8.79,21.72,3.52,15.23,11.61-10.25,15.23-23.41,28.21-34.65,42.69,17.63,13.91,35.17,28.49,48.61,46.59,6.82,10.11-4.79,23.6-15.94,18.71-79.87-14-159.65-28.91-239.53-43.35-11.75.52-20.45-13.44-13.26-23.27,6-5.78,13.45-9.73,20.5-14.1-6-14.72-13.35-28.87-17.82-44.15-2.3-9.82,12.13-14.71,17.59-6.95,7.52,13.49,12.17,28.39,19,42.26a192.54,192.54,0,0,1,72.4-15.42C839,1157.42,837.83,1141.58,839.61,1125.92Z"/><path class="cls-1" d="M1460.42,1318.12c-.18-10.58,20.17-9.55,19.37.75-1,17.39-4.89,34.51-6.72,51.85,28.68-.14,56.89,6.82,83,18.43,10.39-15.14,19.51-31.31,31.5-45.27,7.19-7.48,20,3.34,14.57,12.32-8.27,15.28-19.32,28.82-28.77,43.34a215.88,215.88,0,0,1,47.67,49.51c15.61-10,30.56-21.16,46.82-30.09,8.66-7.43,21.16,8.51,11.85,15.18-14.38,12.27-32.11,19.94-46.64,32.11.1,11.57,14.67,24.69,5.79,36.35-11.14,11.42-26-1-37.75-5-69.07-31.12-138.55-61.21-207.62-92.29-9.63-3.1-11.56-17.86-2.44-22.75,19.51-7.57,40.71-9.12,61.31-11.85C1455.39,1353.23,1457,1335.51,1460.42,1318.12Z"/><path class="cls-9" d="M638.44,763.73Q1061.35,918,1484.21,1072.56c106.91,27.13,214.76,50.68,322.33,75.13,18.19,4.75,37.56,6,54.72,14.06,4.66,9.26,7.38,19.37,10.63,29.24-2.4-10.11-4.89-20.21-7.2-30.28,35.92,7.62,71.79,15.61,107.76,23.18,5.36,47.58,8.08,95.58,5.31,143.44-.47,8.13-1,16.27-1.55,24.49-7.34,99.44-33.29,197-73.62,288.1-65.87,145-173.15,271-307.24,357.21-110.06,70.28-237.37,113.44-367.83,122.38A756.7,756.7,0,0,1,966,2089.65a745.29,745.29,0,0,1-267.55-145C607.6,1867.8,536.23,1768.93,488.75,1660,434.54,1535,413.25,1396.63,424.2,1261c1.88-17.16,3.95-34.32,5.64-51.53-14.24,18.67-29,37.19-47.48,51.86-57.4,47.25-133.38,66.9-206.67,67.14-17.3.37-32.58-16.32-28.54-33.67,13.31-78.32,50.54-156.69,116.6-203.75,27.5-20.55,59.8-32.91,92.33-43-85.52-29.34-147.67-104.32-179.54-186.69-8.14-15.84,3-35.87,20.35-38.08,84.49-14.25,177.9-5.5,248.75,46.54,27.79,19.84,49,46.64,70.1,73.11C548.41,878.07,590.54,818.27,638.44,763.73Zm-24.77,198c-54.82,92.43-82.7,198.45-93.7,304.74,216.92,44.15,431,101.13,642.72,165.59C1374.48,1497.71,1583.41,1572.5,1788,1658c54.26-92.61,82.14-198.39,93.42-304.55-218.8-38.36-434.31-93.79-646.58-159C1023.62,1128.75,815.78,1051.78,613.67,961.75Zm-94,478.22c.42,11,.94,22.24,3.53,33,17.11,78.94,45.41,155.62,85.37,225.86,63.66,114,160.69,210,278.6,267,140.67,70.29,307.33,83.78,459,44.71,23-7.1,47.38-11.75,68.07-24.54-4-.33-12-.89-16-1.17-152.66,1.64-306.53-27-446.35-89-132-58.2-249.69-150.73-332.48-269.29C578,1569.12,546.72,1505.18,519.64,1440Z"/><path class="cls-10" d="M613.67,961.75c202.11,90,410,167,621.18,232.72-23.13,79.5-49.08,158.11-72.16,237.61C951,1367.62,736.89,1310.64,520,1266.49,531,1160.2,558.85,1054.18,613.67,961.75Zm225.94,164.17c-1.78,15.66-.61,31.5-.75,47.3a192.54,192.54,0,0,0-72.4,15.42c-6.82-13.87-11.47-28.77-19-42.26-5.46-7.76-19.89-2.87-17.59,6.95,4.47,15.28,11.85,29.43,17.82,44.15-7.05,4.37-14.48,8.32-20.5,14.1-7.19,9.83,1.51,23.79,13.26,23.27,79.88,14.44,159.66,29.34,239.53,43.35,11.15,4.89,22.76-8.6,15.94-18.71-13.44-18.1-31-32.68-48.61-46.59,11.24-14.48,24.4-27.46,34.65-42.69,6.49-8.09-8.93-20.4-15.23-11.61-13.12,13.16-24,28.3-36,42.4-22.47-12.45-46.49-22.37-72-26.28-.14-15,.51-29.9-.33-44.8C860,1119.53,842.57,1116.62,839.61,1125.92Z"/><path class="cls-11" d="M1234.85,1194.47c212.27,65.16,427.78,120.59,646.58,159-11.28,106.16-39.16,211.94-93.42,304.55-204.6-85.47-413.53-160.26-625.32-225.89C1185.77,1352.58,1211.72,1274,1234.85,1194.47Zm225.57,123.65c-3.38,17.39-5,35.11-8,52.6-20.6,2.73-41.8,4.28-61.31,11.85-9.12,4.89-7.19,19.65,2.44,22.75,69.07,31.08,138.55,61.17,207.62,92.29,11.75,4,26.61,16.41,37.75,5,8.88-11.66-5.69-24.78-5.79-36.35,14.53-12.17,32.26-19.84,46.64-32.11,9.31-6.67-3.19-22.61-11.85-15.18-16.26,8.93-31.21,20.07-46.82,30.09a215.88,215.88,0,0,0-47.67-49.51c9.45-14.52,20.5-28.06,28.77-43.34,5.45-9-7.38-19.8-14.57-12.32-12,14-21.11,30.13-31.5,45.27-26.14-11.61-54.35-18.57-83-18.43,1.83-17.34,5.69-34.46,6.72-51.85C1480.59,1308.57,1460.24,1307.54,1460.42,1318.12Z"/><path class="cls-1" d="M375.86,3355.71s312.07-713,312.31-850.48c0,0,360.42,286.59,413.65,277.37s471.09-96.45,471.09-96.45S1687.8,3287.09,1753,3384.71c0,0-306.49,159.29-364.06,178.08-109.75,35.81-397.48-9.64-397.48-9.64s101.22-493,95.06-473.75-119.63,473.75-119.63,473.75S659.57,3481.62,588,3480.09,375.86,3355.71,375.86,3355.71Z"/><path class="cls-2" d="M1187.81,2293.14c16-16.52,383.52-191.53,478.58-260.95l65.25,67.59Z"/><polygon class="cls-2" points="617.19 1959.1 1147.53 2284.54 556.37 2004.13 617.19 1959.1"/><polygon class="cls-2" points="392.61 2296.69 544.21 2389.05 371.49 2427.94 455.69 2376.53 392.61 2296.69"/><path class="cls-2" d="M1137.87,2809.1c-40.88,0-62.22-13.5-71.3-21.54a53.3,53.3,0,0,1-14.83-21.09c-15.06-13.1-19.17-35.26-21-44.86-3-16.24-4.68-37.24-4.68-59.12s1.66-42.88,4.68-59.12c1.78-9.6,5.9-31.76,21-44.86a53.3,53.3,0,0,1,14.83-21.09c9.08-8.05,30.42-21.54,71.3-21.54s62.23,13.49,71.3,21.54a53.33,53.33,0,0,1,14.84,21.09c15.06,13.1,19.17,35.26,21,44.86,3,16.24,4.67,37.24,4.67,59.12s-1.66,42.88-4.67,59.12c-1.79,9.6-5.9,31.76-21,44.86a53.33,53.33,0,0,1-14.84,21.09C1200.1,2795.6,1178.76,2809.1,1137.87,2809.1Zm26.74-72.56c-4.39,3-6.76,12.67-4.47,17.68l55.69-38.48c-2.43-2.88-10.39-8.06-21.09-6.94-11,1.15-17.71,8.15-19.26,11.36,2.09-4.31,6.4-24.08,6.4-57.67s-4.31-53.37-6.4-57.68c1.55,3.22,8.31,10.22,19.26,11.37,10.7,1.12,18.66-4.06,21.09-6.95l-55.69-38.47c-2.29,5,.08,14.66,4.47,17.68-2.19-1.5-11.95-4.8-26.74-4.8s-24.55,3.3-26.73,4.8c4.38-3,6.75-12.67,4.47-17.69l-55.69,38.48c2.43,2.89,10.39,8.07,21.09,6.95,10.94-1.15,17.7-8.15,19.26-11.37-2.09,4.31-6.41,24.08-6.41,57.68s4.32,53.36,6.41,57.67c-1.56-3.21-8.32-10.21-19.26-11.36-10.69-1.12-18.66,4.06-21.09,6.94l55.69,38.48c2.28-5-.09-14.66-4.47-17.68,2.18,1.5,11.95,4.8,26.73,4.8S1162.42,2738,1164.61,2736.54Zm-49.23-166.24Z"/><polyline class="cls-2" points="715.67 3499.26 900.08 3080.76 787.06 3499.26"/><polyline class="cls-2" points="1358.77 3570 1261.48 3141.41 1279.22 3570"/><path class="cls-2" d="M1459.73,2883.45c-12,9.67,127.6,366.73,127.6,366.73L1581,3080.76Z"/><path class="cls-2" d="M826.63,2790.83S584.17,3270.39,588,3243.64s193.29-452.81,193.29-452.81Z"/><path class="cls-12" d="M1120.66,2187.07a21.5,21.5,0,0,1,.92-14.14c1.82-4.67,3.52-9.49,7.58-12.76,6.8-5.5,16-6.59,24.74-7.46,10.67-1.06,21.55-2.11,32,.15s20.71,8.38,25.18,18.13,1.35,23.14-8.29,27.85c-5,2.44-12,3.4-13.31,8.79-1.13,4.62,3,11.85-1.46,15.62-2,1.67-5.2,2.13-6.84-.3-1.41-2.1-.9-4.92-3.75-5.89s-2.25,1.22-2.18,2.94a4.08,4.08,0,0,1-3.14,4.26c-2.24.39-3.87.22-4.32-2.31-.21-1.13-.19-2.33-.42-3.46-.33-1.63-2.16-5.32-4.24-3.19-.88.89-.71,3.21-1,4.38A20,20,0,0,1,1161,2224c-1.48,3.25-4.67,2-6-.69-1-2.05,0-6.62-2.52-7.43-3.76-1.19-3.88,3.22-4.33,5.58-.83,4.31-5.27,3.28-6.84.11-.88-1.8-.78-4-.84-6a23.56,23.56,0,0,0-1.17-6.14,10.57,10.57,0,0,0-4.24-6.16c-1.65-1.09-2.32-2.41-3.73-3.74s-2.77-2.45-4.15-3.69C1124.43,2193.36,1121.76,2190.64,1120.66,2187.07Z"/><path class="cls-4" d="M1141.66,2191.72c-3.87,1.79-7.66,2.61-9.38-2.27-1.51-4.3-.16-10.36,2.67-13.81a18.56,18.56,0,0,1,12.58-6.47c5.77-.55,10.2,6.57,12.44,10.88,1.38,2.64,2.63,8.65-1.16,10.11-3,1.16-5.46-2.36-8.44-2.23C1148.2,2188,1144.91,2190.22,1141.66,2191.72Z"/><path class="cls-4" d="M1199,2184.09c-.2,4.53-3.38,10.41-8.86,8.94-2.5-.67-2.89-6.43-6-5.41-2,.65-2.62,2.8-5,2.88a7.06,7.06,0,0,1-4.83-1.54,6.76,6.76,0,0,1-2.09-6.93c1.36-6.59,9.66-9.65,15.56-9.94C1194.53,2171.76,1199.3,2177.65,1199,2184.09Z"/><path class="cls-4" d="M1162.88,2205c.06-3.43,3.49-7.63,6.17-3.88,1.3,1.82,2.15,4.07-.26,5.05a15.05,15.05,0,0,1-4.42.79c-3,0-1.82-3-.49-5"/><path class="cls-3" d="M1944.39,2107.93c73.86-34.75,114.11,6.57,119.36,78.41,4.53,62.12-18.49,108.4-70.89,141.39-46.54,29.3-130.28,51.69-153.85-17.42C1809.27,2223.12,1868.87,2139,1944.39,2107.93Z"/><polygon class="cls-2" points="806.18 2640.56 755.44 2428.56 849.49 2643.21 806.18 2640.56"/><polygon class="cls-2" points="927.98 2643.21 915.74 2520.08 980.51 2662.49 927.98 2643.21"/><polygon class="cls-2" points="942.13 2802.73 861.28 3045.52 980.51 2825.86 942.13 2802.73"/><path class="cls-2" d="M1326.15,2773.07c-12,10.37,32.62,242.24,32.62,242.24l-97.29-232.71"/><path class="cls-2" d="M1547.34,2869c1.23-8-73.51-133.16-73.51-133.16h36.76Z"/><path class="cls-2" d="M1326.15,2662.49s58.2-174,59-157.26-26.4,157.26-26.4,157.26Z"/><polygon class="cls-2" points="1459 2643.21 1522.06 2505.23 1490.53 2662.49 1459 2643.21"/><path class="cls-13" d="M974.12,616.18l162.66-195.85a36.67,36.67,0,0,1,38.16-11.87c49.75,14,162.26,46,152,46-13.12,0-153.09,271.18-166.21,266.81-8.74-2.91-104.84-29.12-168-46.29A36.69,36.69,0,0,1,974.12,616.18Z"/><path class="cls-6" d="M1024.68,616.17l118.68-142.9s104.14,29.06,96.88,29.06-84.77,150.17-92,147.75S1024.68,616.17,1024.68,616.17Z"/><path class="cls-2" d="M1309.45,480.74,1864.94,673.2l8.75,43.74s-559.86-196.83-573-201.2"/></g></g></svg>