<?xml version="1.0" encoding="UTF-8" standalone="no"?>
<!-- Created with Inkscape (http://www.inkscape.org/) -->
<svg xmlns:svg="http://www.w3.org/2000/svg" xmlns="http://www.w3.org/2000/svg" xmlns:dc="http://purl.org/dc/elements/1.1/" xmlns:cc="http://web.resource.org/cc/" xmlns:rdf="http://www.w3.org/1999/02/22-rdf-syntax-ns#" version="1.0" width="558.29102" height="501.177" viewBox="0 0 558.291 501.177" id="Layer_1" xml:space="preserve"><defs id="defs120"/>




<g id="g5">
	<path d="M 81.336,242.874 C 81.336,376.974 169.968,485.729 279.299,485.729 C 388.596,485.729 477.228,376.973 477.228,242.874 C 477.228,108.774 388.596,0.018 279.299,0.018 C 169.968,0.018 81.336,108.774 81.336,242.874 L 81.336,242.874 z " style="fill-rule:evenodd;stroke:black;stroke-width:0.036;stroke-miterlimit:10" id="path7"/>
	<path d="M 85.548,243.306 C 85.548,375.174 172.668,482.13 280.128,482.13 C 387.588,482.13 474.708,375.174 474.708,243.306 C 474.708,111.402 387.588,4.446 280.128,4.446 C 172.668,4.446 85.548,111.402 85.548,243.306 L 85.548,243.306 z " style="fill:#e8ccba;fill-rule:evenodd;stroke:black;stroke-width:0.036;stroke-miterlimit:10" id="path9"/>
	<path d="M 98.724,199.422 C 97.5,194.562 95.304,191.106 91.992,188.622 C 88.68,186.138 84.216,184.806 78.996,184.77 C 73.632,184.662 65.388,184.482 60.24,188.118 C 54.984,191.718 50.844,198.054 47.964,206.154 C 44.94,214.146 42.348,225.954 42.672,235.746 C 42.96,245.502 44.976,256.878 50.124,263.897 C 55.2,270.809 67.116,275.238 73.236,276.641 C 79.176,277.757 82.776,274.662 85.98,271.097 C 89.148,267.497 91.056,262.205 91.992,255.221 L 91.992,255.221 L 98.724,199.422 L 98.724,199.422 z " style="fill-rule:evenodd;stroke:black;stroke-width:0.036;stroke-miterlimit:10" id="path11"/>
	<path d="M 92.712,259.326 C 92.136,257.49 91.416,256.733 90.552,256.914 C 89.688,257.166 88.644,258.317 87.42,260.514 C 85.98,262.638 84.432,266.922 82.38,269.19 C 80.256,271.278 78.672,273.079 75.396,273.043 C 72.012,272.863 67.008,271.063 62.904,268.471 C 58.764,265.735 53.688,262.099 50.88,257.419 C 47.928,252.667 46.38,247.015 45.804,240.319 L 45.804,240.319 C 45.48,239.095 45.696,236.287 46.308,231.895 C 46.92,227.359 47.856,219.583 49.656,213.859 C 51.42,207.955 53.652,201.583 56.64,197.515 C 59.592,193.447 63.12,190.891 67.224,189.559 C 71.112,188.047 76.764,188.587 80.436,188.839 C 83.964,189.019 86.628,189.667 88.86,190.783 C 90.984,191.863 92.64,193.303 93.684,195.103 C 94.728,196.723 94.368,199.747 95.124,200.863 C 95.808,201.907 96.636,202.195 97.752,201.583 C 98.76,200.863 99.84,199.603 101.136,197.263 L 101.136,197.263 C 98.328,217.926 95.52,238.626 92.712,259.326 L 92.712,259.326 z " style="fill:#e8ccba;fill-rule:evenodd" id="path13"/>
	<path d="M 87.924,211.23 C 87.42,209.718 84.792,207.126 82.38,205.938 C 79.824,204.606 76.188,203.166 72.984,203.994 C 69.636,204.786 65.748,206.694 63.12,210.978 C 60.456,215.262 58.116,222.786 57.612,229.266 C 57.036,235.674 57.648,244.71 59.988,248.994 C 62.292,253.098 67.764,254.178 71.544,254.035 C 75.144,253.747 80.616,249.571 82.128,247.771 C 83.496,245.899 82.236,242.983 80.436,243.199 C 78.6,243.379 74.208,248.275 71.544,248.995 C 68.7,249.607 66.072,248.887 64.344,246.835 C 62.616,244.639 61.68,241.039 61.68,236.467 C 61.608,231.787 62.508,223.831 64.092,219.403 C 65.568,214.939 68.412,211.411 70.824,209.791 C 73.2,208.027 76.044,208.459 78.528,209.287 C 80.904,210.115 83.604,214.147 85.26,214.579 C 86.772,214.794 88.356,212.706 87.924,211.23 L 87.924,211.23 z " style="fill-rule:evenodd;stroke:black;stroke-width:0.036;stroke-miterlimit:10" id="path15"/>
	<path d="M 463.404,201.51 C 464.592,196.686 466.788,193.122 470.135,190.674 C 473.411,188.154 477.732,186.93 483.095,186.858 C 488.423,186.75 496.631,186.57 501.887,190.206 C 507.072,193.806 511.104,200.142 514.127,208.242 C 517.043,216.234 519.635,228.042 519.419,237.834 C 519.023,247.59 517.007,258.966 511.967,265.986 C 506.783,272.897 494.831,277.326 488.892,278.729 C 482.843,279.845 479.244,276.75 476.148,273.185 C 472.944,269.585 471.036,264.293 470.135,257.309 L 470.135,257.309 L 463.404,201.51 L 463.404,201.51 z " style="fill-rule:evenodd;stroke:black;stroke-width:0.036;stroke-miterlimit:10" id="path17"/>
	<path d="M 469.416,261.414 C 469.956,259.578 470.676,258.822 471.576,259.002 C 472.332,259.254 473.376,260.406 474.708,262.602 C 476.112,264.726 477.66,269.01 479.748,271.278 C 481.8,273.367 483.349,275.167 486.732,275.131 C 490.007,274.951 495.047,273.151 499.224,270.559 C 503.255,267.859 508.368,264.116 511.247,259.471 C 514.163,254.683 515.675,249.139 516.323,242.407 L 516.323,242.407 C 516.611,241.183 516.395,238.375 515.819,233.983 C 515.099,229.447 514.163,221.671 512.47,215.947 C 510.67,210.043 508.439,203.671 505.487,199.603 C 502.426,195.535 498.899,192.979 494.903,191.647 C 490.835,190.135 485.255,190.675 481.655,190.927 C 478.019,191.107 475.355,191.755 473.231,192.871 C 470.962,193.951 469.415,195.391 468.443,197.191 C 467.291,198.811 467.687,201.835 467.003,202.951 C 466.247,203.995 465.312,204.283 464.339,203.671 C 463.295,202.951 462.18,201.691 460.991,199.351 L 460.991,199.351 C 463.8,220.014 466.608,240.714 469.416,261.414 L 469.416,261.414 z " style="fill:#e8ccba;fill-rule:evenodd" id="path19"/>
	<path d="M 474.204,213.318 C 474.636,211.806 477.228,209.214 479.748,208.026 C 482.196,206.694 485.868,205.254 489.108,206.082 C 492.383,206.874 496.272,208.782 498.971,213.066 C 501.492,217.35 503.94,224.874 504.516,231.354 C 504.984,237.762 504.408,246.798 502.104,251.082 C 499.656,255.186 494.291,256.266 490.583,256.122 C 486.875,255.834 481.403,251.658 479.999,249.858 C 478.595,247.986 479.747,245.07 481.655,245.286 C 483.383,245.466 487.847,250.363 490.583,251.082 C 493.283,251.622 496.055,250.937 497.783,248.886 C 499.439,246.654 500.267,243.162 500.411,238.554 C 500.339,233.874 499.547,225.918 498.035,221.49 C 496.487,216.918 493.643,213.57 491.303,211.842 C 488.82,210.042 485.976,210.582 483.6,211.374 C 481.116,212.202 478.452,216.234 476.868,216.666 C 475.248,216.882 473.664,214.794 474.204,213.318 L 474.204,213.318 z " style="fill-rule:evenodd;stroke:black;stroke-width:0.036;stroke-miterlimit:10" id="path21"/>
	<path d="M 167.304,428.273 C 163.884,425.538 156.324,416.826 151.572,411.03 C 146.64,405.09 140.304,396.269 138.936,393.462 C 137.676,390.654 140.88,391.302 143.976,394.29 C 147,397.242 152.112,405.414 156.792,411.03 C 161.256,416.429 169.5,424.206 171.264,427.122 C 172.956,429.966 170.616,430.902 167.304,428.273 L 167.304,428.273 z " style="fill-rule:evenodd;stroke:black;stroke-width:0.036;stroke-miterlimit:10" id="path23"/>
	<path d="M 173.964,433.35 C 174.612,434.538 178.284,437.995 179.58,438.462 C 180.768,438.678 181.884,436.41 181.272,435.258 C 180.516,434.034 176.556,431.946 175.368,431.622 C 174.108,431.262 173.172,432.162 173.964,433.35 L 173.964,433.35 z " style="fill-rule:evenodd;stroke:black;stroke-width:0.036;stroke-miterlimit:10" id="path25"/>
	<path d="M 132.528,383.778 C 132.852,385.038 135.516,389.538 136.632,390.185 C 137.712,390.725 139.368,388.817 139.08,387.521 C 138.612,386.082 135.408,383.093 134.328,382.446 C 133.104,381.834 132.132,382.41 132.528,383.778 L 132.528,383.778 z " style="fill-rule:evenodd;stroke:black;stroke-width:0.036;stroke-miterlimit:10" id="path27"/>
	<path d="M 401.269,421.218 C 404.544,418.447 412.248,409.842 417.037,404.01 C 421.753,398.071 428.269,389.25 429.637,386.442 C 430.789,383.634 427.621,384.283 424.598,387.27 C 421.501,390.294 416.354,398.323 411.782,403.974 C 407.21,409.482 398.966,417.078 397.31,420.102 C 395.544,422.981 397.884,423.81 401.269,421.218 L 401.269,421.218 z " style="fill-rule:evenodd;stroke:black;stroke-width:0.036;stroke-miterlimit:10" id="path29"/>
	<path d="M 394.645,426.33 C 393.817,427.518 390.216,430.974 388.993,431.441 C 387.733,431.693 386.581,429.317 387.337,428.202 C 387.985,426.977 391.945,424.889 393.241,424.565 C 394.393,424.313 395.328,425.034 394.645,426.33 L 394.645,426.33 z " style="fill-rule:evenodd;stroke:black;stroke-width:0.036;stroke-miterlimit:10" id="path31"/>
	<path d="M 436.044,376.722 C 435.612,377.982 432.948,382.482 431.94,383.13 C 430.788,383.67 429.06,381.762 429.528,380.466 C 429.96,379.098 433.02,376.074 434.244,375.426 C 435.36,374.742 436.332,375.354 436.044,376.722 L 436.044,376.722 z " style="fill-rule:evenodd;stroke:black;stroke-width:0.036;stroke-miterlimit:10" id="path33"/>
	<path d="M 279.156,316.89 C 275.7,313.578 270.3,311.67 262.668,310.878 C 254.856,310.122 245.532,315.81 233.436,312.39 C 221.232,308.827 203.34,300.51 190.74,289.926 C 178.104,279.126 168.204,262.746 158.52,248.706 C 148.836,234.522 140.448,220.662 133.068,206.01 L 133.068,206.01 C 135.228,196.83 135.588,189.378 134.544,183.51 C 133.392,177.57 130.692,173.466 126.3,170.802 L 126.3,170.802 C 129.36,169.074 130.728,166.698 130.8,163.278 C 130.728,159.822 129.36,155.718 126.3,150.57 L 126.3,150.57 C 133.752,142.722 138,133.902 139.044,123.57 C 140.052,113.094 138.9,96.57 132.384,89.118 C 125.652,81.63 114.816,78.57 99.336,79.398 L 99.336,79.398 C 90.48,70.65 83.676,65.79 78.384,64.386 C 73.092,63.054 69.636,65.214 67.872,71.154 L 67.872,71.154 C 61.248,62.622 54.984,57.618 48.396,56.142 C 41.736,54.63 32.844,59.094 28.92,62.154 C 25.068,65.214 23.772,69.03 25.176,74.142 L 25.176,74.142 C 11.964,79.254 4.152,85.698 1.2,93.618 C -1.644,101.61 0.552,110.574 7.932,121.338 L 7.932,121.338 C 1.92,126.99 -0.528,132.894 0.444,139.338 C 1.416,145.782 5.916,152.334 13.944,159.534 L 13.944,159.534 C 9.912,169.47 9.408,178.326 12.432,186.534 C 15.456,194.67 24.636,203.994 31.908,208.242 C 39.072,212.418 46.668,213.282 55.128,211.23 L 55.128,211.23 C 58.476,216.63 62.976,219.582 68.628,220.23 C 74.28,220.77 80.976,219.15 88.86,214.974 L 88.86,214.974 C 86.556,221.166 85.8,225.738 86.592,229.23 C 87.384,232.614 89.508,234.558 93.36,235.206 L 93.36,235.206 C 81.948,249.03 75.504,264.042 73.884,280.926 C 72.228,297.846 75.468,315.702 83.604,335.61 L 83.604,335.61 C 72.588,354.69 70.392,371.97 76.872,388.818 C 83.496,405.558 98.4,420.714 122.556,435.258 L 122.556,435.258 C 126.84,445.806 132.456,455.418 139.8,464.49 C 147.072,473.561 154.884,484.29 166.008,489.185 C 177.132,493.866 190.092,495.162 205.716,492.929 L 205.716,492.929 C 216.444,498.581 226.164,501.282 235.704,501.173 C 245.1,500.921 250.896,493.721 261.984,492.209 C 273.108,490.661 291.396,490.661 301.692,492.209 C 311.843,493.721 314.004,500.921 322.608,501.173 C 331.175,501.281 340.932,498.581 352.56,492.929 L 352.56,492.929 C 368.148,495.161 381.108,493.866 392.268,489.185 C 403.32,484.289 411.096,473.561 418.512,464.49 C 425.856,455.418 431.364,445.805 435.719,435.258 L 435.719,435.258 C 459.803,420.714 474.816,405.558 481.44,388.818 C 487.919,371.97 485.724,354.69 474.708,335.61 L 474.708,335.61 C 482.772,315.703 486.013,297.846 484.428,280.926 C 482.773,264.042 476.328,249.03 464.952,235.206 L 464.952,235.206 C 468.696,234.558 470.892,232.614 471.684,229.23 C 472.44,225.738 471.648,221.166 469.452,214.974 L 469.452,214.974 C 477.408,219.15 483.96,220.77 489.684,220.23 C 495.335,219.582 499.728,216.63 503.148,211.23 L 503.148,211.23 C 511.536,213.282 519.24,212.418 526.404,208.242 C 533.568,203.994 542.784,194.67 545.88,186.534 C 548.868,178.326 548.364,169.47 544.368,159.534 L 544.368,159.534 C 552.36,152.334 556.86,145.782 557.868,139.338 C 558.804,132.894 556.356,126.99 550.38,121.338 L 550.38,121.338 C 557.725,110.574 559.92,101.61 557.112,93.618 C 554.124,85.698 546.276,79.254 533.135,74.142 L 533.135,74.142 C 534.503,69.03 533.207,65.214 529.392,62.154 C 525.36,59.094 516.503,54.63 509.915,56.142 C 503.291,57.618 497.027,62.622 490.439,71.154 L 490.439,71.154 C 488.639,65.214 485.183,63.054 479.926,64.386 C 474.599,65.79 467.758,70.65 458.975,79.398 L 458.975,79.398 C 443.495,77.526 432.802,80.226 426.071,87.642 C 419.447,95.058 418.151,112.914 419.267,123.57 C 420.311,134.118 424.414,142.938 431.975,150.57 L 431.975,150.57 C 428.951,155.718 427.511,159.822 427.511,163.278 C 427.511,166.698 428.95,169.074 431.975,170.802 L 431.975,170.802 C 427.546,173.466 424.847,177.57 423.731,183.51 C 422.579,189.378 423.083,196.83 425.243,206.01 L 425.243,206.01 C 417.827,220.662 409.439,234.522 399.791,248.706 C 390.107,262.746 380.063,279.126 367.571,289.926 C 354.935,300.51 336.899,308.826 324.839,312.39 C 312.779,315.81 303.239,310.122 295.644,310.878 C 287.977,311.67 282.576,313.578 279.156,316.89 L 279.156,316.89 z " style="fill-rule:evenodd" id="path35"/>
	<path d="M 278.472,322.866 C 275.016,319.662 269.616,317.574 261.984,316.889 C 254.172,316.169 244.848,321.749 232.752,318.366 C 220.548,314.802 202.656,306.486 190.056,295.902 C 177.528,285.101 168.456,269.874 157.836,254.681 C 147.108,239.417 136.848,223.217 126.372,205.253 L 126.372,205.253 C 128.46,196.109 128.964,188.621 127.884,182.789 C 126.732,176.885 124.032,172.637 119.64,170.045 L 119.64,170.045 C 122.7,168.389 124.068,165.941 124.14,162.557 C 124.068,159.137 122.7,154.889 119.64,149.813 L 119.64,149.813 C 126.984,141.677 131.232,132.965 132.384,122.849 C 133.5,112.769 132.096,96.137 126.372,89.873 C 120.468,83.537 111.252,82.169 97.896,85.373 L 97.896,85.373 C 90.516,77.201 84.324,72.593 79.176,71.153 C 74.028,69.785 70.032,71.729 67.188,77.129 L 67.188,77.129 C 61.896,68.526 56.496,63.234 50.7,61.398 C 44.796,59.418 35.292,63.414 32.736,65.898 C 30.216,68.454 31.26,71.766 35.724,76.374 L 35.724,76.374 C 20.28,81.666 10.884,88.074 7.248,95.886 C 3.648,103.662 5.808,112.554 14.016,122.85 L 14.016,122.85 C 8.148,127.638 5.592,132.787 6.492,138.582 C 7.428,144.306 11.496,150.498 19.236,157.302 L 19.236,157.302 C 14.664,168.03 14.304,176.994 17.76,185.022 C 21.216,192.906 33.24,201.114 40.224,204.498 C 47.1,207.702 53.292,207.702 58.944,204.498 L 58.944,204.498 C 62.184,211.842 66.684,215.586 72.444,215.73 C 78.276,215.838 85.08,212.346 93.432,205.254 L 93.432,205.254 C 91.524,213.462 91.272,219.726 92.676,224.73 C 94.008,229.626 96.996,232.83 101.64,234.486 L 101.64,234.486 C 86.628,250.578 78.672,266.778 76.944,283.914 C 75.324,301.014 80.22,318.222 91.92,336.366 L 91.92,336.366 C 79.176,354.33 75.684,370.782 81.444,386.55 C 87.312,402.246 101.964,416.538 126.372,430.002 L 126.372,430.002 C 129.18,438.317 134.22,446.634 141.348,455.49 C 148.476,464.345 158.376,477.269 169.104,482.454 C 179.832,487.494 191.532,488.357 205.032,485.441 L 205.032,485.441 C 215.148,491.561 224.616,494.513 234.264,494.441 C 243.804,494.189 251.004,486.305 261.984,484.685 C 272.928,483.03 289.164,483.03 299.46,484.685 C 309.54,486.305 313.897,494.189 322.681,494.441 C 331.428,494.513 341.113,491.561 351.876,485.441 L 351.876,485.441 C 365.304,488.357 377.112,487.494 387.84,482.454 C 398.532,477.269 408.288,464.346 415.561,455.49 C 422.76,446.634 427.584,438.317 430.573,430.002 L 430.573,430.002 C 455.485,414.918 470.785,399.618 477.013,383.562 C 483.096,367.363 479.893,351.199 467.256,334.098 L 467.256,334.098 C 477.985,314.298 482.485,296.442 480.756,279.414 C 478.884,262.458 471.072,247.122 456.78,232.974 L 456.78,232.974 C 461.532,232.47 464.484,230.022 465.78,225.486 C 466.932,220.878 466.572,214.578 464.268,206.01 L 464.268,206.01 C 473.591,212.418 481.331,215.262 487.488,214.974 C 493.572,214.506 498.072,210.906 500.988,203.742 L 500.988,203.742 C 506.604,206.946 512.796,206.946 519.708,203.742 C 526.584,200.358 538.572,192.15 542.208,184.266 C 545.664,176.238 545.16,167.274 540.696,156.546 L 540.696,156.546 C 548.364,149.742 552.467,143.55 553.44,137.826 C 554.268,132.03 551.82,126.882 545.952,122.094 L 545.952,122.094 C 554.052,111.798 556.248,102.906 552.684,95.13 C 549.012,87.282 539.616,80.982 524.207,75.654 L 524.207,75.654 C 528.635,71.118 529.68,67.662 527.195,65.142 C 524.639,62.586 515.315,58.626 509.231,60.642 C 503.075,62.658 496.882,68.058 490.511,77.13 L 490.511,77.13 C 489.25,71.19 486.046,68.994 480.754,70.398 C 475.391,71.802 468.334,76.698 459.011,85.374 L 459.011,85.374 C 445.691,82.17 436.403,83.538 430.571,89.874 C 424.775,96.138 423.371,112.77 424.559,122.85 C 425.639,132.966 429.886,141.678 437.302,149.814 L 437.302,149.814 C 434.206,154.89 432.838,159.138 432.802,162.558 C 432.838,165.942 434.206,168.39 437.302,170.046 L 437.302,170.046 C 432.874,172.638 430.174,176.886 429.059,182.79 C 427.907,188.622 428.411,196.11 430.571,205.254 L 430.571,205.254 C 420.634,225.27 410.483,242.622 399.827,258.426 C 389.135,274.158 379.451,288.666 366.887,298.89 C 354.035,308.863 336.287,315.306 324.192,318.367 C 311.988,321.247 302.7,316.171 294.96,316.89 C 287.292,317.574 281.893,319.662 278.472,322.866 L 278.472,322.866 z " style="fill:#49322a;fill-rule:evenodd" id="path37"/>
	<path d="M 211.8,245.718 C 199.56,250.398 183.288,258.75 172.848,267.426 C 162.48,275.922 151.788,286.83 150.348,296.658 C 148.98,306.486 154.524,318.582 164.604,325.853 C 174.72,333.017 194.34,340.433 210.288,339.353 C 226.164,337.95 246.792,325.673 258.996,318.366 C 270.984,310.95 278.868,302.345 282.216,295.902 C 285.384,289.458 278.257,285.137 278.472,280.17 C 278.688,275.13 284.88,271.494 283.728,265.95 C 282.36,260.298 277.464,250.794 270.984,246.473 C 264.252,242.081 254.712,239.777 244.74,239.705 C 234.768,239.418 223.788,241.146 211.8,245.718 L 211.8,245.718 z " style="fill-rule:evenodd" id="path39"/>
	<path d="M 215.544,249.462 C 204.42,253.962 186.528,262.817 176.592,271.17 C 166.584,279.486 156.648,289.89 156.36,298.89 C 156.108,307.746 165.36,318.655 175.08,324.378 C 184.872,330.066 200.172,334.242 214.032,332.622 C 227.748,330.786 246.144,319.914 256.728,313.902 C 267.168,307.818 273.54,302.166 276.24,296.658 C 278.796,291.078 272.172,285.929 272.46,280.926 C 272.784,275.886 279.3,272.106 277.716,266.67 C 275.916,261.018 267.852,251.73 261.984,247.95 C 256.008,244.206 250.212,243.882 242.508,244.206 C 234.624,244.494 226.56,244.818 215.544,249.462 L 215.544,249.462 z " style="fill:#49322a;fill-rule:evenodd" id="path41"/>
	<path d="M 344.424,247.95 C 356.592,252.594 372.864,261.09 383.376,269.694 C 393.672,278.226 404.364,289.026 405.876,298.89 C 407.136,308.718 401.592,320.778 391.62,328.122 C 381.396,335.286 361.776,342.702 345.936,341.622 C 329.952,340.218 309.324,327.941 297.228,320.634 C 285.131,313.218 277.248,304.614 274.008,298.17 C 270.768,291.69 277.896,287.406 277.752,282.402 C 277.428,277.362 271.272,273.725 272.496,268.181 C 273.756,262.53 278.652,253.025 285.24,248.705 C 291.864,244.277 301.404,242.081 311.484,241.973 C 321.349,241.722 332.328,243.342 344.424,247.95 L 344.424,247.95 z " style="fill-rule:evenodd" id="path43"/>
	<path d="M 340.681,251.693 C 351.697,256.229 369.588,265.049 379.632,273.437 C 389.532,281.753 399.468,292.158 399.864,301.158 C 400.044,310.05 390.756,320.849 381.144,326.609 C 371.28,332.297 355.98,336.473 342.192,334.853 C 328.368,333.017 309.972,322.145 299.496,316.133 C 289.02,310.049 282.648,304.397 279.984,298.889 C 277.32,293.309 283.944,288.161 283.764,283.158 C 283.331,278.082 276.851,274.41 278.508,268.937 C 280.236,263.286 288.264,253.998 294.24,250.217 C 300.108,246.473 305.904,246.149 313.716,246.473 C 321.492,246.618 329.557,247.194 340.681,251.693 L 340.681,251.693 z " style="fill:#49322a;fill-rule:evenodd" id="path45"/>
	<path d="M 47.712,180.522 C 48.036,179.766 51.276,189.666 55.2,191.754 C 58.944,193.59 64.452,193.518 70.176,192.51 C 75.864,191.43 83.64,189.414 88.932,185.778 C 94.044,182.106 98.184,172.53 100.92,170.802 C 103.512,168.93 106.248,172.314 104.664,175.266 C 102.936,178.182 96.168,185.094 91.164,188.766 C 86.016,192.366 80.976,195.714 74.676,197.01 C 68.196,198.306 58.296,198.846 53.724,196.254 C 49.152,193.302 47.424,181.386 47.712,180.522 L 47.712,180.522 z " style="fill-rule:evenodd;stroke:black;stroke-width:0.036;stroke-miterlimit:10" id="path47"/>
	<path d="M 100.164,197.766 C 101.856,195.426 107.04,192.906 109.884,189.522 C 112.728,185.994 115.356,177.93 116.652,177.534 C 117.768,177.174 117.912,183.33 116.652,187.254 C 115.248,191.034 111.252,197.226 108.408,199.998 C 105.384,202.59 100.812,203.31 99.408,202.986 C 97.968,202.518 98.364,200.034 100.164,197.766 L 100.164,197.766 z " style="fill-rule:evenodd;stroke:black;stroke-width:0.036;stroke-miterlimit:10" id="path49"/>
	<path d="M 118.128,210.51 C 117.984,212.742 123.204,224.478 127.128,230.706 C 130.98,236.898 139.8,246.15 141.384,247.194 C 142.788,247.95 138.396,240.966 136.128,235.962 C 133.86,230.742 130.836,221.634 127.884,217.242 C 124.824,212.994 118.236,208.206 118.128,210.51 L 118.128,210.51 z " style="fill-rule:evenodd;stroke:black;stroke-width:0.036;stroke-miterlimit:10" id="path51"/>
	<path d="M 35.724,174.906 C 35.724,176.778 37.056,178.29 38.712,178.29 C 40.368,178.29 41.736,176.778 41.736,174.906 C 41.736,173.034 40.368,171.522 38.712,171.522 C 37.056,171.522 35.724,173.034 35.724,174.906 L 35.724,174.906 z " style="fill-rule:evenodd;stroke:black;stroke-width:0.036;stroke-miterlimit:10" id="path53"/>
	<path d="M 108.408,163.674 C 108.408,165.546 109.74,167.022 111.396,167.022 C 113.052,167.022 114.384,165.546 114.384,163.674 C 114.384,161.802 113.052,160.29 111.396,160.29 C 109.74,160.29 108.408,161.802 108.408,163.674 L 108.408,163.674 z " style="fill-rule:evenodd;stroke:black;stroke-width:0.036;stroke-miterlimit:10" id="path55"/>
	<path d="M 144.372,253.565 C 144.372,255.437 145.704,256.95 147.36,256.95 C 149.016,256.95 150.348,255.437 150.348,253.565 C 150.348,251.693 149.016,250.217 147.36,250.217 C 145.704,250.218 144.372,251.693 144.372,253.565 L 144.372,253.565 z " style="fill-rule:evenodd;stroke:black;stroke-width:0.036;stroke-miterlimit:10" id="path57"/>
	<path d="M 510.708,180.522 C 510.312,179.766 507.036,189.666 503.22,191.754 C 499.405,193.59 493.861,193.518 488.244,192.51 C 482.592,191.43 474.6,189.414 469.524,185.778 C 464.303,182.106 460.164,172.53 457.536,170.802 C 454.8,168.93 452.208,172.314 453.792,175.266 C 455.412,178.182 462.216,185.094 467.256,188.766 C 472.296,192.366 477.372,195.714 483.744,197.01 C 490.08,198.306 500.088,198.846 504.732,196.254 C 509.232,193.302 510.853,181.386 510.708,180.522 L 510.708,180.522 z " style="fill-rule:evenodd;stroke:black;stroke-width:0.036;stroke-miterlimit:10" id="path59"/>
	<path d="M 458.292,197.766 C 456.42,195.426 451.272,192.906 448.536,189.522 C 445.728,185.994 442.884,177.93 441.804,177.534 C 440.58,177.174 440.437,183.33 441.804,187.254 C 443.136,191.034 447.132,197.226 450.048,199.998 C 452.857,202.59 457.609,203.31 459.013,202.986 C 460.309,202.518 460.021,200.034 458.292,197.766 L 458.292,197.766 z " style="fill-rule:evenodd;stroke:black;stroke-width:0.036;stroke-miterlimit:10" id="path61"/>
	<path d="M 440.292,210.51 C 440.364,212.742 435.145,224.478 431.292,230.706 C 427.296,236.898 418.62,246.15 417.072,247.194 C 415.668,247.95 419.916,240.966 422.328,235.962 C 424.56,230.742 427.44,221.634 430.536,217.242 C 433.488,212.994 440.112,208.206 440.292,210.51 L 440.292,210.51 z " style="fill-rule:evenodd;stroke:black;stroke-width:0.036;stroke-miterlimit:10" id="path63"/>
	<path d="M 522.696,174.906 C 522.696,176.778 521.364,178.29 519.708,178.29 C 518.052,178.29 516.72,176.778 516.72,174.906 C 516.72,173.034 518.052,171.522 519.708,171.522 C 521.364,171.522 522.696,173.034 522.696,174.906 L 522.696,174.906 z " style="fill-rule:evenodd;stroke:black;stroke-width:0.036;stroke-miterlimit:10" id="path65"/>
	<path d="M 450.048,163.674 C 450.048,165.546 448.681,167.022 447.025,167.022 C 445.369,167.022 444.037,165.546 444.037,163.674 C 444.037,161.802 445.369,160.29 447.025,160.29 C 448.681,160.29 450.048,161.802 450.048,163.674 L 450.048,163.674 z " style="fill-rule:evenodd;stroke:black;stroke-width:0.036;stroke-miterlimit:10" id="path67"/>
	<path d="M 414.084,253.565 C 414.084,255.437 412.716,256.95 411.097,256.95 C 409.405,256.95 408.073,255.437 408.073,253.565 C 408.073,251.693 409.405,250.217 411.097,250.217 C 412.716,250.218 414.084,251.693 414.084,253.565 L 414.084,253.565 z " style="fill-rule:evenodd;stroke:black;stroke-width:0.036;stroke-miterlimit:10" id="path69"/>
	<path d="M 146.604,325.854 C 147.792,328.338 151.68,333.991 157.836,337.123 C 163.956,340.11 178.5,343.423 182.568,343.854 C 186.312,344.106 184.836,341.119 181.056,339.354 C 177.24,337.626 165.072,336.15 160.104,333.378 C 155.028,330.354 153.372,323.406 151.104,322.109 C 148.764,320.742 145.452,323.334 146.604,325.854 L 146.604,325.854 z " style="fill-rule:evenodd;stroke:black;stroke-width:0.036;stroke-miterlimit:10" id="path71"/>
	<path d="M 294.96,331.109 C 297.624,333.954 303.313,338.994 309.937,342.341 C 316.453,345.473 327.829,348.713 333.913,349.829 C 339.925,350.765 347.161,349.577 345.901,348.352 C 344.388,346.985 331.861,344.608 325.669,342.34 C 319.441,340.036 314.401,337.588 309.182,334.852 C 303.854,332.008 296.545,326.464 294.205,325.852 C 291.72,325.206 292.296,328.302 294.96,331.109 L 294.96,331.109 z " style="fill-rule:evenodd;stroke:black;stroke-width:0.036;stroke-miterlimit:10" id="path73"/>
	<path d="M 140.628,314.262 C 140.628,316.134 141.96,317.61 143.616,317.61 C 145.272,317.61 146.604,316.134 146.604,314.262 C 146.604,312.39 145.272,310.878 143.616,310.878 C 141.96,310.878 140.628,312.39 140.628,314.262 L 140.628,314.262 z " style="fill-rule:evenodd;stroke:black;stroke-width:0.036;stroke-miterlimit:10" id="path75"/>
	<path d="M 190.812,344.214 C 190.812,346.086 192.144,347.598 193.8,347.598 C 195.456,347.598 196.824,346.086 196.824,344.214 C 196.824,342.378 195.456,340.866 193.8,340.866 C 192.144,340.866 190.812,342.378 190.812,344.214 L 190.812,344.214 z " style="fill-rule:evenodd;stroke:black;stroke-width:0.036;stroke-miterlimit:10" id="path77"/>
	<path d="M 317.424,352.854 C 316.2,348.894 314.185,336.942 314.437,334.098 C 314.796,331.182 317.641,331.686 318.937,335.61 C 320.052,339.535 321.313,354.367 321.168,357.354 C 320.809,360.09 318.54,356.777 317.424,352.854 L 317.424,352.854 z " style="fill-rule:evenodd;stroke:black;stroke-width:0.036;stroke-miterlimit:10" id="path79"/>
	<path d="M 327.937,359.586 C 326.676,355.59 324.697,343.746 324.913,340.866 C 325.273,337.95 328.117,338.49 329.413,342.342 C 330.565,346.266 331.825,361.098 331.682,364.086 C 331.32,366.822 329.052,363.51 327.937,359.586 L 327.937,359.586 z " style="fill-rule:evenodd;stroke:black;stroke-width:0.036;stroke-miterlimit:10" id="path81"/>
	<path d="M 151.14,456.857 C 153.444,459.881 158.7,465.677 164.964,469.53 C 171.12,473.309 182.064,477.593 188.076,479.322 C 193.908,480.798 201.36,480.366 200.172,478.998 C 198.804,477.63 186.456,473.778 180.624,471.042 C 174.72,468.233 169.824,465.174 164.964,462.006 C 159.888,458.658 153.264,452.394 150.924,451.566 C 148.548,450.594 148.764,453.834 151.14,456.857 L 151.14,456.857 z " style="fill-rule:evenodd;stroke:black;stroke-width:0.036;stroke-miterlimit:10" id="path83"/>
	<path d="M 169.824,473.454 C 168.6,469.458 166.584,457.614 166.836,454.733 C 167.196,451.925 170.04,452.25 171.336,456.246 C 172.452,460.098 173.712,474.966 173.568,477.954 C 173.208,480.689 170.94,477.378 169.824,473.454 L 169.824,473.454 z " style="fill-rule:evenodd;stroke:black;stroke-width:0.036;stroke-miterlimit:10" id="path85"/>
	<path d="M 183.324,478.71 C 182.1,474.714 180.084,462.87 180.336,459.99 C 180.696,457.074 183.54,457.614 184.836,461.466 C 185.952,465.39 187.212,480.222 187.068,483.21 C 186.708,485.946 184.44,482.634 183.324,478.71 L 183.324,478.71 z " style="fill-rule:evenodd;stroke:black;stroke-width:0.036;stroke-miterlimit:10" id="path87"/>
	<path d="M 292.98,473.813 C 295.32,476.009 300.288,479.933 305.94,482.273 C 311.52,484.469 320.988,486.557 326.135,487.133 C 331.175,487.565 337.043,486.197 335.963,485.261 C 334.703,484.217 324.119,482.885 318.936,481.409 C 313.751,479.789 309.36,478.169 304.932,476.153 C 300.287,474.136 294.096,469.888 292.043,469.529 C 290.064,469.17 290.604,471.618 292.98,473.813 L 292.98,473.813 z " style="fill-rule:evenodd;stroke:black;stroke-width:0.036;stroke-miterlimit:10" id="path89"/>
	<path d="M 311.844,482.382 C 310.836,479.106 309.181,469.278 309.397,466.903 C 309.577,464.526 312.061,464.886 313.105,468.127 C 314.041,471.295 315.084,483.679 314.977,486.127 C 314.652,488.357 312.816,485.622 311.844,482.382 L 311.844,482.382 z " style="fill-rule:evenodd;stroke:black;stroke-width:0.036;stroke-miterlimit:10" id="path91"/>
	<path d="M 320.557,487.962 C 319.584,484.686 317.785,474.858 318.073,472.482 C 318.253,470.106 320.737,470.466 321.781,473.707 C 322.717,476.875 323.76,489.259 323.653,491.707 C 323.364,493.938 321.456,491.202 320.557,487.962 L 320.557,487.962 z " style="fill-rule:evenodd;stroke:black;stroke-width:0.036;stroke-miterlimit:10" id="path93"/>
	<path d="M 167.844,163.35 C 167.844,194.274 193.224,219.33 224.544,219.33 C 255.828,219.33 281.208,194.274 281.208,163.35 C 281.208,132.426 255.828,107.371 224.544,107.371 C 193.224,107.37 167.844,132.426 167.844,163.35 L 167.844,163.35 z " style="fill-rule:evenodd;stroke:black;stroke-width:0.036;stroke-miterlimit:10" id="path95"/>
	<path d="M 171.804,163.35 C 171.804,192.114 195.42,215.442 224.544,215.442 C 253.668,215.442 277.284,192.114 277.284,163.35 C 277.284,134.586 253.668,111.258 224.544,111.258 C 195.42,111.258 171.804,134.586 171.804,163.35 L 171.804,163.35 z " style="fill:#f0f0f0;fill-rule:evenodd;stroke:black;stroke-width:0.036;stroke-miterlimit:10" id="path97"/>
	<path d="M 278.256,163.35 C 278.256,194.274 303.635,219.33 334.956,219.33 C 366.24,219.33 391.62,194.274 391.62,163.35 C 391.62,132.426 366.24,107.371 334.956,107.371 C 303.636,107.37 278.256,132.426 278.256,163.35 L 278.256,163.35 z " style="fill-rule:evenodd;stroke:black;stroke-width:0.036;stroke-miterlimit:10" id="path99"/>
	<path d="M 282.216,163.35 C 282.216,192.114 305.832,215.442 334.956,215.442 C 364.08,215.442 387.696,192.114 387.696,163.35 C 387.696,134.586 364.08,111.258 334.956,111.258 C 305.832,111.258 282.216,134.586 282.216,163.35 L 282.216,163.35 z " style="fill:#f0f0f0;fill-rule:evenodd;stroke:black;stroke-width:0.036;stroke-miterlimit:10" id="path101"/>
	<path d="M 170.796,149.454 C 162.804,147.798 155.496,146.394 148.872,145.242 C 142.176,144.018 136.164,143.046 130.836,142.326 L 130.836,142.326 L 126.264,152.334 L 126.264,152.334 C 137.64,153.882 146.64,155.286 154.092,156.546 C 161.436,157.77 166.656,158.85 170.148,159.786 L 170.148,159.786 C 170.364,156.366 170.58,152.91 170.796,149.454 L 170.796,149.454 z " style="fill-rule:evenodd;stroke:black;stroke-width:0.036;stroke-miterlimit:10" id="path103"/>
	<path d="M 387.696,149.454 C 395.688,147.798 402.96,146.394 409.656,145.242 C 416.352,144.018 422.219,143.046 427.656,142.326 L 427.656,142.326 L 432.264,152.334 L 432.264,152.334 C 420.887,153.882 411.78,155.286 404.4,156.546 C 397.091,157.77 391.692,158.85 388.343,159.786 L 388.343,159.786 C 388.128,156.366 387.912,152.91 387.696,149.454 L 387.696,149.454 z " style="fill-rule:evenodd;stroke:black;stroke-width:0.036;stroke-miterlimit:10" id="path105"/>
	<path d="M 334.813,174.078 C 334.813,180.557 328.836,185.849 321.493,185.849 C 314.113,185.849 308.173,180.557 308.173,174.078 C 308.173,167.562 314.113,162.306 321.493,162.306 C 328.836,162.306 334.813,167.562 334.813,174.078 L 334.813,174.078 z " style="fill-rule:evenodd;stroke:black;stroke-width:0.036;stroke-miterlimit:10" id="path107"/>
	<path d="M 324.192,171.882 C 324.192,173.898 322.572,175.518 320.591,175.518 C 318.575,175.518 316.955,173.898 316.955,171.882 C 316.955,169.866 318.575,168.246 320.591,168.246 C 322.572,168.246 324.192,169.866 324.192,171.882 L 324.192,171.882 z " style="fill:white;fill-rule:evenodd;stroke:black;stroke-width:0.036;stroke-miterlimit:10" id="path109"/>
	<path d="M 233.472,176.13 C 233.472,182.754 239.412,188.154 246.792,188.154 C 254.136,188.154 260.112,182.754 260.112,176.13 C 260.112,169.47 254.136,164.106 246.792,164.106 C 239.412,164.106 233.472,169.47 233.472,176.13 L 233.472,176.13 z " style="fill-rule:evenodd;stroke:black;stroke-width:0.036;stroke-miterlimit:10" id="path111"/>
	<path d="M 240.204,173.934 C 240.204,175.95 241.824,177.57 243.804,177.57 C 245.82,177.57 247.44,175.95 247.44,173.934 C 247.44,171.918 245.82,170.298 243.804,170.298 C 241.824,170.298 240.204,171.918 240.204,173.934 L 240.204,173.934 z " style="fill:white;fill-rule:evenodd;stroke:black;stroke-width:0.036;stroke-miterlimit:10" id="path113"/>
	<path d="M 349.176,150.822 C 346.368,148.446 340.716,144.99 336.252,142.83 C 331.788,140.67 326.28,138.762 322.788,138.222 C 319.225,137.61 315.732,138.258 315.228,139.338 C 314.688,140.454 316.667,143.118 319.62,144.558 C 322.572,145.746 328.332,145.422 332.58,147.042 C 336.72,148.59 341.076,151.938 344.136,154.026 C 347.052,155.934 348.744,158.598 350.185,158.958 C 351.517,159.246 352.597,157.662 352.453,156.294 C 352.309,154.818 351.769,153.126 349.176,150.822 L 349.176,150.822 z " style="fill-rule:evenodd;stroke:black;stroke-width:0.036;stroke-miterlimit:10" id="path115"/>
	<path d="M 212.304,156.762 C 214.248,153.99 218.676,149.382 222.384,146.43 C 225.876,143.442 230.736,140.418 233.904,139.158 C 237.108,137.826 240.42,137.646 241.356,138.618 C 242.04,139.518 241.032,142.578 238.62,144.486 C 236.136,146.358 230.412,147.15 226.992,149.634 C 223.392,152.01 220.224,156.114 217.92,158.742 C 215.652,161.298 214.716,163.89 213.564,164.718 C 212.268,165.294 210.936,163.962 210.684,162.666 C 210.324,161.262 210.396,159.426 212.304,156.762 L 212.304,156.762 z " style="fill-rule:evenodd;stroke:black;stroke-width:0.036;stroke-miterlimit:10" id="path117"/>
</g>
<metadata><rdf:RDF><cc:Work><dc:format>image/svg+xml</dc:format><dc:type rdf:resource="http://purl.org/dc/dcmitype/StillImage"/><cc:license rdf:resource="http://creativecommons.org/licenses/publicdomain/"/><dc:publisher><cc:Agent rdf:about="http://openclipart.org/"><dc:title>Open Clip Art Library</dc:title></cc:Agent></dc:publisher><dc:title>Man Face Cartoon</dc:title><dc:date>2006-10-18T11:12:19</dc:date><dc:description>Uploaded by "World Label" for conversion to SVG and publication on OCAL.</dc:description><dc:source>http://openclipart.org/detail/734/man-face-cartoon-by-gerald_g-734</dc:source><dc:creator><cc:Agent><dc:title>Gerald_G</dc:title></cc:Agent></dc:creator><dc:subject><rdf:Bag><rdf:li>cartoon</rdf:li><rdf:li>clip art</rdf:li><rdf:li>clipart</rdf:li><rdf:li>externalsource</rdf:li><rdf:li>face</rdf:li><rdf:li>man</rdf:li><rdf:li>people</rdf:li><rdf:li>remix</rdf:li><rdf:li>worldlabel</rdf:li></rdf:Bag></dc:subject></cc:Work><cc:License rdf:about="http://creativecommons.org/licenses/publicdomain/"><cc:permits rdf:resource="http://creativecommons.org/ns#Reproduction"/><cc:permits rdf:resource="http://creativecommons.org/ns#Distribution"/><cc:permits rdf:resource="http://creativecommons.org/ns#DerivativeWorks"/></cc:License></rdf:RDF></metadata></svg>
